<svg width="206" height="50" viewBox="0 0 206 50" fill="none" xmlns="http://www.w3.org/2000/svg">
<circle cx="25" cy="25" r="25" fill="#8D0327"/>
<path d="M17 10.1758C17 18.6553 17.7145 27.1105 17.7907 35.5852C17.8117 37.9175 17.8051 40.2527 17.7907 42.5853C17.7889 42.8692 17.7783 43.2313 17.6919 42.803" stroke="#CBBEBE" stroke-width="3" stroke-linecap="round"/>
<path d="M34.9885 9C34.9885 10.9622 35.1047 12.962 34.5986 14.8788C34.0229 17.0593 32.8579 19.1223 31.1668 20.6433C29.5903 22.061 27.6419 23.2269 25.835 24.3284C24.1578 25.3507 22.422 26.1067 20.6021 26.8323C19.723 27.1828 18.6072 27.4907 18.0543 28.3129C17.6949 28.8472 17.7907 29.7492 17.7907 30.2616" stroke="#CBBEBE" stroke-width="3" stroke-linecap="round"/>
<mask id="path-4-inside-1_749_130" fill="white">
<path d="M57.176 35C56.936 35 56.76 34.928 56.648 34.784C56.552 34.64 56.504 34.392 56.504 34.04C56.504 33.672 56.552 33.424 56.648 33.296C56.76 33.152 56.936 33.08 57.176 33.08H59.696V14.432H57.176C56.936 14.432 56.76 14.36 56.648 14.216C56.552 14.072 56.504 13.824 56.504 13.472C56.504 13.104 56.552 12.856 56.648 12.728C56.76 12.584 56.936 12.512 57.176 12.512H64.352C64.592 12.512 64.76 12.584 64.856 12.728C64.952 12.856 65 13.104 65 13.472C65 13.824 64.952 14.072 64.856 14.216C64.76 14.36 64.592 14.432 64.352 14.432H61.784V33.08H64.352C64.592 33.08 64.76 33.152 64.856 33.296C64.952 33.424 65 33.672 65 34.04C65 34.392 64.952 34.64 64.856 34.784C64.76 34.928 64.592 35 64.352 35H57.176ZM71.3716 35.456C70.7316 35.456 70.1316 35.368 69.5716 35.192C69.0116 35.016 68.5156 34.8 68.0836 34.544C67.6516 34.272 67.3076 34 67.0516 33.728C66.9396 33.6 66.8836 33.448 66.8836 33.272C66.8996 33.08 67.0116 32.872 67.2196 32.648C67.3956 32.472 67.5556 32.368 67.6996 32.336C67.8436 32.304 68.0036 32.352 68.1796 32.48C68.7716 32.928 69.3316 33.264 69.8596 33.488C70.4036 33.696 70.9236 33.8 71.4196 33.8C71.8996 33.8 72.3236 33.728 72.6916 33.584C73.0596 33.424 73.3476 33.192 73.5556 32.888C73.7796 32.584 73.8916 32.224 73.8916 31.808C73.8916 31.296 73.7396 30.904 73.4356 30.632C73.1316 30.344 72.7396 30.128 72.2596 29.984C71.7956 29.824 71.2996 29.672 70.7716 29.528C70.2436 29.368 69.7396 29.168 69.2596 28.928C68.7956 28.672 68.4116 28.32 68.1076 27.872C67.8036 27.424 67.6516 26.816 67.6516 26.048C67.6516 25.376 67.8196 24.776 68.1556 24.248C68.5076 23.72 68.9876 23.304 69.5956 23C70.2196 22.696 70.9316 22.544 71.7316 22.544C72.3716 22.544 72.9396 22.616 73.4356 22.76C73.9476 22.888 74.3876 23.064 74.7556 23.288C75.1396 23.496 75.4516 23.728 75.6916 23.984C75.8676 24.16 75.9396 24.336 75.9076 24.512C75.8916 24.672 75.7956 24.848 75.6196 25.04C75.4436 25.248 75.2676 25.368 75.0916 25.4C74.9316 25.416 74.7476 25.352 74.5396 25.208C74.0916 24.888 73.6436 24.64 73.1956 24.464C72.7476 24.288 72.2516 24.2 71.7076 24.2C71.1316 24.2 70.6516 24.344 70.2676 24.632C69.8996 24.904 69.7156 25.296 69.7156 25.808C69.7156 26.288 69.8596 26.664 70.1476 26.936C70.4516 27.192 70.8356 27.408 71.2996 27.584C71.7796 27.744 72.2836 27.904 72.8116 28.064C73.3556 28.224 73.8596 28.432 74.3236 28.688C74.8036 28.944 75.1876 29.296 75.4756 29.744C75.7796 30.176 75.9316 30.76 75.9316 31.496C75.9316 32.184 75.7636 32.832 75.4276 33.44C75.1076 34.048 74.6116 34.536 73.9396 34.904C73.2676 35.272 72.4116 35.456 71.3716 35.456ZM90.9553 35.408C90.4113 35.408 89.9393 35.328 89.5393 35.168C89.1393 35.024 88.8113 34.8 88.5553 34.496C88.2993 34.176 88.1073 33.784 87.9793 33.32C87.8673 32.84 87.8113 32.28 87.8113 31.64V27.176C87.8113 26.328 87.6193 25.664 87.2353 25.184C86.8673 24.704 86.2433 24.464 85.3633 24.464C85.0273 24.464 84.6833 24.512 84.3313 24.608C83.9793 24.704 83.6353 24.856 83.2993 25.064C82.9633 25.272 82.6513 25.552 82.3633 25.904C82.0753 26.24 81.8193 26.656 81.5953 27.152V34.736C81.5953 34.944 81.5073 35.096 81.3313 35.192C81.1553 35.304 80.8993 35.36 80.5633 35.36C80.2113 35.36 79.9473 35.304 79.7713 35.192C79.6113 35.096 79.5312 34.944 79.5312 34.736V12.752C79.5312 12.544 79.6113 12.392 79.7713 12.296C79.9473 12.184 80.2113 12.128 80.5633 12.128C80.8993 12.128 81.1553 12.184 81.3313 12.296C81.5073 12.392 81.5953 12.544 81.5953 12.752V24.8C81.8193 24.464 82.0753 24.16 82.3633 23.888C82.6673 23.6 82.9873 23.36 83.3233 23.168C83.6753 22.96 84.0433 22.808 84.4273 22.712C84.8113 22.6 85.2193 22.544 85.6513 22.544C86.4833 22.544 87.2113 22.696 87.8353 23C88.4753 23.304 88.9713 23.784 89.3233 24.44C89.6913 25.08 89.8753 25.928 89.8753 26.984V31.64C89.8753 32.36 89.9793 32.872 90.1873 33.176C90.4113 33.464 90.8193 33.608 91.4113 33.608C91.6353 33.608 91.8033 33.704 91.9153 33.896C92.0273 34.072 92.0673 34.28 92.0353 34.52C92.0193 34.744 91.9233 34.944 91.7473 35.12C91.5713 35.312 91.3073 35.408 90.9553 35.408ZM90.95 35.408C90.726 35.408 90.566 35.312 90.47 35.12C90.358 34.944 90.318 34.744 90.35 34.52C90.366 34.28 90.462 34.072 90.638 33.896C90.814 33.704 91.07 33.608 91.406 33.608C91.95 33.608 92.446 33.512 92.894 33.32C93.358 33.128 93.774 32.864 94.142 32.528C94.51 32.192 94.838 31.792 95.126 31.328C95.43 30.864 95.686 30.36 95.894 29.816C95.99 29.576 96.134 29.472 96.326 29.504C96.518 29.52 96.678 29.6 96.806 29.744C96.95 29.888 96.998 30.048 96.95 30.224C96.694 31.04 96.374 31.768 95.99 32.408C95.606 33.048 95.158 33.592 94.646 34.04C94.15 34.488 93.59 34.824 92.966 35.048C92.358 35.288 91.686 35.408 90.95 35.408ZM94.622 45.968C94.19 45.968 93.774 45.896 93.374 45.752C92.99 45.624 92.646 45.432 92.342 45.176C92.038 44.936 91.798 44.648 91.622 44.312C91.51 44.088 91.502 43.88 91.598 43.688C91.678 43.496 91.846 43.32 92.102 43.16C92.342 43.016 92.542 42.944 92.702 42.944C92.862 42.96 93.03 43.064 93.206 43.256C93.462 43.528 93.718 43.744 93.974 43.904C94.23 44.08 94.51 44.168 94.814 44.168C95.23 44.168 95.51 44.008 95.654 43.688C95.798 43.384 95.87 43 95.87 42.536V24.92H93.83C93.638 24.92 93.486 24.84 93.374 24.68C93.262 24.52 93.206 24.28 93.206 23.96C93.206 23.32 93.406 23 93.806 23H95.87V16.064C95.87 15.104 96.054 14.328 96.422 13.736C96.79 13.144 97.254 12.712 97.814 12.44C98.39 12.168 98.99 12.032 99.614 12.032C100.398 12.032 101.062 12.176 101.606 12.464C102.15 12.752 102.598 13.08 102.95 13.448C103.126 13.624 103.19 13.808 103.142 14C103.094 14.176 102.982 14.36 102.806 14.552C102.598 14.76 102.406 14.88 102.23 14.912C102.054 14.944 101.862 14.896 101.654 14.768C101.302 14.512 100.99 14.312 100.718 14.168C100.446 14.024 100.102 13.952 99.686 13.952C99.19 13.952 98.774 14.104 98.438 14.408C98.102 14.712 97.934 15.312 97.934 16.208V23H101.03C101.414 23 101.606 23.32 101.606 23.96C101.606 24.6 101.414 24.92 101.03 24.92H97.934V42.536C97.934 43.4 97.782 44.08 97.478 44.576C97.19 45.072 96.79 45.424 96.278 45.632C95.782 45.856 95.23 45.968 94.622 45.968ZM107.55 35.408C106.638 35.408 105.83 35.192 105.126 34.76C104.422 34.312 103.87 33.64 103.47 32.744C103.07 31.848 102.87 30.72 102.87 29.36C102.87 28.528 102.95 27.76 103.11 27.056C103.27 26.352 103.494 25.72 103.782 25.16C104.086 24.6 104.454 24.128 104.886 23.744C105.334 23.36 105.838 23.064 106.398 22.856C106.958 22.648 107.574 22.544 108.246 22.544C108.902 22.544 109.574 22.672 110.262 22.928C110.95 23.184 111.566 23.52 112.11 23.936V25.736C111.47 25.224 110.854 24.88 110.262 24.704C109.686 24.528 109.086 24.44 108.462 24.44C108.046 24.44 107.654 24.504 107.286 24.632C106.934 24.76 106.614 24.952 106.326 25.208C106.054 25.464 105.814 25.784 105.606 26.168C105.414 26.552 105.262 27 105.15 27.512C105.054 28.024 105.006 28.608 105.006 29.264C105.006 30.144 105.11 30.904 105.318 31.544C105.526 32.168 105.838 32.648 106.254 32.984C106.686 33.32 107.222 33.488 107.862 33.488C108.438 33.488 108.974 33.36 109.47 33.104C109.982 32.832 110.446 32.408 110.862 31.832C111.294 31.24 111.662 30.464 111.966 29.504L112.35 30.968C111.982 32.2 111.526 33.136 110.982 33.776C110.454 34.416 109.886 34.848 109.278 35.072C108.686 35.296 108.11 35.408 107.55 35.408ZM114.51 35.408C113.966 35.408 113.494 35.328 113.094 35.168C112.694 35.024 112.366 34.8 112.11 34.496C111.854 34.176 111.662 33.784 111.534 33.32C111.422 32.84 111.366 32.28 111.366 31.64V23.336C111.366 23.096 111.454 22.92 111.63 22.808C111.806 22.696 112.07 22.64 112.422 22.64C112.758 22.64 113.006 22.696 113.166 22.808C113.342 22.904 113.43 23.064 113.43 23.288V31.64C113.43 32.36 113.534 32.872 113.742 33.176C113.966 33.464 114.374 33.608 114.966 33.608C115.11 33.608 115.214 33.704 115.278 33.896C115.358 34.072 115.382 34.28 115.35 34.52C115.334 34.744 115.254 34.944 115.11 35.12C114.982 35.312 114.782 35.408 114.51 35.408ZM114.505 35.408C114.281 35.408 114.121 35.312 114.025 35.12C113.913 34.944 113.873 34.744 113.905 34.52C113.921 34.28 114.017 34.072 114.193 33.896C114.369 33.704 114.625 33.608 114.961 33.608C115.441 33.608 115.873 33.544 116.257 33.416C116.625 33.288 116.945 33.096 117.217 32.84C117.489 32.584 117.705 32.264 117.865 31.88C118.041 31.496 118.161 31.048 118.225 30.536C118.257 30.296 118.377 30.144 118.585 30.08C118.793 30 118.993 30 119.185 30.08C119.393 30.144 119.481 30.296 119.449 30.536C119.385 31.384 119.217 32.12 118.945 32.744C118.673 33.352 118.321 33.856 117.889 34.256C117.457 34.64 116.953 34.928 116.377 35.12C115.817 35.312 115.193 35.408 114.505 35.408ZM128.665 45.488C128.585 45.696 128.425 45.784 128.185 45.752C127.945 45.736 127.737 45.64 127.561 45.464C127.401 45.288 127.369 45.08 127.465 44.84C127.625 44.408 127.857 43.92 128.161 43.376C128.465 42.848 128.849 42.28 129.313 41.672C129.777 41.064 130.313 40.456 130.921 39.848C131.017 39.768 131.137 39.712 131.281 39.68C131.441 39.664 131.617 39.752 131.809 39.944C131.985 40.12 132.073 40.288 132.073 40.448C132.089 40.624 132.033 40.776 131.905 40.904C131.441 41.368 130.993 41.872 130.561 42.416C130.145 42.96 129.769 43.496 129.433 44.024C129.097 44.568 128.841 45.056 128.665 45.488ZM122.809 35.408C121.897 35.408 121.089 35.192 120.385 34.76C119.681 34.312 119.129 33.64 118.729 32.744C118.329 31.848 118.129 30.72 118.129 29.36C118.129 28.528 118.201 27.76 118.345 27.056C118.505 26.352 118.737 25.72 119.041 25.16C119.345 24.6 119.713 24.128 120.145 23.744C120.577 23.36 121.073 23.064 121.633 22.856C122.193 22.648 122.809 22.544 123.481 22.544C124.009 22.544 124.545 22.616 125.089 22.76C125.649 22.904 126.169 23.112 126.649 23.384V23.264C126.649 23.056 126.737 22.904 126.913 22.808C127.089 22.696 127.345 22.64 127.681 22.64C128.033 22.64 128.289 22.696 128.449 22.808C128.625 22.904 128.713 23.056 128.713 23.264V45.248C128.713 45.456 128.625 45.608 128.449 45.704C128.289 45.816 128.033 45.872 127.681 45.872C127.345 45.872 127.089 45.816 126.913 45.704C126.737 45.608 126.649 45.456 126.649 45.248V33.368C126.265 33.912 125.849 34.336 125.401 34.64C124.969 34.928 124.529 35.128 124.081 35.24C123.649 35.352 123.225 35.408 122.809 35.408ZM120.241 29.264C120.241 30.144 120.345 30.904 120.553 31.544C120.761 32.168 121.073 32.648 121.489 32.984C121.921 33.32 122.457 33.488 123.097 33.488C123.561 33.488 124.001 33.408 124.417 33.248C124.849 33.088 125.249 32.824 125.617 32.456C126.001 32.088 126.345 31.608 126.649 31.016V25.304C126.153 24.984 125.665 24.76 125.185 24.632C124.705 24.504 124.209 24.44 123.697 24.44C123.281 24.44 122.897 24.504 122.545 24.632C122.193 24.76 121.873 24.952 121.585 25.208C121.297 25.464 121.049 25.784 120.841 26.168C120.649 26.552 120.497 27 120.385 27.512C120.289 28.024 120.241 28.608 120.241 29.264ZM142.725 35.336C142.021 35.336 141.669 35.112 141.669 34.664V13.16C141.669 12.936 141.757 12.776 141.933 12.68C142.109 12.568 142.373 12.512 142.725 12.512H153.285C153.525 12.512 153.693 12.584 153.789 12.728C153.901 12.856 153.957 13.104 153.957 13.472C153.957 13.824 153.901 14.072 153.789 14.216C153.693 14.36 153.525 14.432 153.285 14.432H143.781V22.784H151.701C151.941 22.784 152.109 22.856 152.205 23C152.301 23.128 152.349 23.376 152.349 23.744C152.349 24.096 152.301 24.344 152.205 24.488C152.109 24.632 151.941 24.704 151.701 24.704H143.781V34.664C143.781 34.888 143.693 35.056 143.517 35.168C143.341 35.28 143.077 35.336 142.725 35.336ZM156.611 35.816C156.115 35.816 155.739 35.68 155.483 35.408C155.243 35.152 155.123 34.768 155.123 34.256C155.123 33.728 155.243 33.336 155.483 33.08C155.739 32.824 156.115 32.696 156.611 32.696C157.123 32.696 157.499 32.824 157.739 33.08C157.995 33.336 158.123 33.728 158.123 34.256C158.123 34.768 157.995 35.152 157.739 35.408C157.499 35.68 157.123 35.816 156.611 35.816Z"/>
</mask>
<path d="M57.176 35C56.936 35 56.76 34.928 56.648 34.784C56.552 34.64 56.504 34.392 56.504 34.04C56.504 33.672 56.552 33.424 56.648 33.296C56.76 33.152 56.936 33.08 57.176 33.08H59.696V14.432H57.176C56.936 14.432 56.76 14.36 56.648 14.216C56.552 14.072 56.504 13.824 56.504 13.472C56.504 13.104 56.552 12.856 56.648 12.728C56.76 12.584 56.936 12.512 57.176 12.512H64.352C64.592 12.512 64.76 12.584 64.856 12.728C64.952 12.856 65 13.104 65 13.472C65 13.824 64.952 14.072 64.856 14.216C64.76 14.36 64.592 14.432 64.352 14.432H61.784V33.08H64.352C64.592 33.08 64.76 33.152 64.856 33.296C64.952 33.424 65 33.672 65 34.04C65 34.392 64.952 34.64 64.856 34.784C64.76 34.928 64.592 35 64.352 35H57.176ZM71.3716 35.456C70.7316 35.456 70.1316 35.368 69.5716 35.192C69.0116 35.016 68.5156 34.8 68.0836 34.544C67.6516 34.272 67.3076 34 67.0516 33.728C66.9396 33.6 66.8836 33.448 66.8836 33.272C66.8996 33.08 67.0116 32.872 67.2196 32.648C67.3956 32.472 67.5556 32.368 67.6996 32.336C67.8436 32.304 68.0036 32.352 68.1796 32.48C68.7716 32.928 69.3316 33.264 69.8596 33.488C70.4036 33.696 70.9236 33.8 71.4196 33.8C71.8996 33.8 72.3236 33.728 72.6916 33.584C73.0596 33.424 73.3476 33.192 73.5556 32.888C73.7796 32.584 73.8916 32.224 73.8916 31.808C73.8916 31.296 73.7396 30.904 73.4356 30.632C73.1316 30.344 72.7396 30.128 72.2596 29.984C71.7956 29.824 71.2996 29.672 70.7716 29.528C70.2436 29.368 69.7396 29.168 69.2596 28.928C68.7956 28.672 68.4116 28.32 68.1076 27.872C67.8036 27.424 67.6516 26.816 67.6516 26.048C67.6516 25.376 67.8196 24.776 68.1556 24.248C68.5076 23.72 68.9876 23.304 69.5956 23C70.2196 22.696 70.9316 22.544 71.7316 22.544C72.3716 22.544 72.9396 22.616 73.4356 22.76C73.9476 22.888 74.3876 23.064 74.7556 23.288C75.1396 23.496 75.4516 23.728 75.6916 23.984C75.8676 24.16 75.9396 24.336 75.9076 24.512C75.8916 24.672 75.7956 24.848 75.6196 25.04C75.4436 25.248 75.2676 25.368 75.0916 25.4C74.9316 25.416 74.7476 25.352 74.5396 25.208C74.0916 24.888 73.6436 24.64 73.1956 24.464C72.7476 24.288 72.2516 24.2 71.7076 24.2C71.1316 24.2 70.6516 24.344 70.2676 24.632C69.8996 24.904 69.7156 25.296 69.7156 25.808C69.7156 26.288 69.8596 26.664 70.1476 26.936C70.4516 27.192 70.8356 27.408 71.2996 27.584C71.7796 27.744 72.2836 27.904 72.8116 28.064C73.3556 28.224 73.8596 28.432 74.3236 28.688C74.8036 28.944 75.1876 29.296 75.4756 29.744C75.7796 30.176 75.9316 30.76 75.9316 31.496C75.9316 32.184 75.7636 32.832 75.4276 33.44C75.1076 34.048 74.6116 34.536 73.9396 34.904C73.2676 35.272 72.4116 35.456 71.3716 35.456ZM90.9553 35.408C90.4113 35.408 89.9393 35.328 89.5393 35.168C89.1393 35.024 88.8113 34.8 88.5553 34.496C88.2993 34.176 88.1073 33.784 87.9793 33.32C87.8673 32.84 87.8113 32.28 87.8113 31.64V27.176C87.8113 26.328 87.6193 25.664 87.2353 25.184C86.8673 24.704 86.2433 24.464 85.3633 24.464C85.0273 24.464 84.6833 24.512 84.3313 24.608C83.9793 24.704 83.6353 24.856 83.2993 25.064C82.9633 25.272 82.6513 25.552 82.3633 25.904C82.0753 26.24 81.8193 26.656 81.5953 27.152V34.736C81.5953 34.944 81.5073 35.096 81.3313 35.192C81.1553 35.304 80.8993 35.36 80.5633 35.36C80.2113 35.36 79.9473 35.304 79.7713 35.192C79.6113 35.096 79.5312 34.944 79.5312 34.736V12.752C79.5312 12.544 79.6113 12.392 79.7713 12.296C79.9473 12.184 80.2113 12.128 80.5633 12.128C80.8993 12.128 81.1553 12.184 81.3313 12.296C81.5073 12.392 81.5953 12.544 81.5953 12.752V24.8C81.8193 24.464 82.0753 24.16 82.3633 23.888C82.6673 23.6 82.9873 23.36 83.3233 23.168C83.6753 22.96 84.0433 22.808 84.4273 22.712C84.8113 22.6 85.2193 22.544 85.6513 22.544C86.4833 22.544 87.2113 22.696 87.8353 23C88.4753 23.304 88.9713 23.784 89.3233 24.44C89.6913 25.08 89.8753 25.928 89.8753 26.984V31.64C89.8753 32.36 89.9793 32.872 90.1873 33.176C90.4113 33.464 90.8193 33.608 91.4113 33.608C91.6353 33.608 91.8033 33.704 91.9153 33.896C92.0273 34.072 92.0673 34.28 92.0353 34.52C92.0193 34.744 91.9233 34.944 91.7473 35.12C91.5713 35.312 91.3073 35.408 90.9553 35.408ZM90.95 35.408C90.726 35.408 90.566 35.312 90.47 35.12C90.358 34.944 90.318 34.744 90.35 34.52C90.366 34.28 90.462 34.072 90.638 33.896C90.814 33.704 91.07 33.608 91.406 33.608C91.95 33.608 92.446 33.512 92.894 33.32C93.358 33.128 93.774 32.864 94.142 32.528C94.51 32.192 94.838 31.792 95.126 31.328C95.43 30.864 95.686 30.36 95.894 29.816C95.99 29.576 96.134 29.472 96.326 29.504C96.518 29.52 96.678 29.6 96.806 29.744C96.95 29.888 96.998 30.048 96.95 30.224C96.694 31.04 96.374 31.768 95.99 32.408C95.606 33.048 95.158 33.592 94.646 34.04C94.15 34.488 93.59 34.824 92.966 35.048C92.358 35.288 91.686 35.408 90.95 35.408ZM94.622 45.968C94.19 45.968 93.774 45.896 93.374 45.752C92.99 45.624 92.646 45.432 92.342 45.176C92.038 44.936 91.798 44.648 91.622 44.312C91.51 44.088 91.502 43.88 91.598 43.688C91.678 43.496 91.846 43.32 92.102 43.16C92.342 43.016 92.542 42.944 92.702 42.944C92.862 42.96 93.03 43.064 93.206 43.256C93.462 43.528 93.718 43.744 93.974 43.904C94.23 44.08 94.51 44.168 94.814 44.168C95.23 44.168 95.51 44.008 95.654 43.688C95.798 43.384 95.87 43 95.87 42.536V24.92H93.83C93.638 24.92 93.486 24.84 93.374 24.68C93.262 24.52 93.206 24.28 93.206 23.96C93.206 23.32 93.406 23 93.806 23H95.87V16.064C95.87 15.104 96.054 14.328 96.422 13.736C96.79 13.144 97.254 12.712 97.814 12.44C98.39 12.168 98.99 12.032 99.614 12.032C100.398 12.032 101.062 12.176 101.606 12.464C102.15 12.752 102.598 13.08 102.95 13.448C103.126 13.624 103.19 13.808 103.142 14C103.094 14.176 102.982 14.36 102.806 14.552C102.598 14.76 102.406 14.88 102.23 14.912C102.054 14.944 101.862 14.896 101.654 14.768C101.302 14.512 100.99 14.312 100.718 14.168C100.446 14.024 100.102 13.952 99.686 13.952C99.19 13.952 98.774 14.104 98.438 14.408C98.102 14.712 97.934 15.312 97.934 16.208V23H101.03C101.414 23 101.606 23.32 101.606 23.96C101.606 24.6 101.414 24.92 101.03 24.92H97.934V42.536C97.934 43.4 97.782 44.08 97.478 44.576C97.19 45.072 96.79 45.424 96.278 45.632C95.782 45.856 95.23 45.968 94.622 45.968ZM107.55 35.408C106.638 35.408 105.83 35.192 105.126 34.76C104.422 34.312 103.87 33.64 103.47 32.744C103.07 31.848 102.87 30.72 102.87 29.36C102.87 28.528 102.95 27.76 103.11 27.056C103.27 26.352 103.494 25.72 103.782 25.16C104.086 24.6 104.454 24.128 104.886 23.744C105.334 23.36 105.838 23.064 106.398 22.856C106.958 22.648 107.574 22.544 108.246 22.544C108.902 22.544 109.574 22.672 110.262 22.928C110.95 23.184 111.566 23.52 112.11 23.936V25.736C111.47 25.224 110.854 24.88 110.262 24.704C109.686 24.528 109.086 24.44 108.462 24.44C108.046 24.44 107.654 24.504 107.286 24.632C106.934 24.76 106.614 24.952 106.326 25.208C106.054 25.464 105.814 25.784 105.606 26.168C105.414 26.552 105.262 27 105.15 27.512C105.054 28.024 105.006 28.608 105.006 29.264C105.006 30.144 105.11 30.904 105.318 31.544C105.526 32.168 105.838 32.648 106.254 32.984C106.686 33.32 107.222 33.488 107.862 33.488C108.438 33.488 108.974 33.36 109.47 33.104C109.982 32.832 110.446 32.408 110.862 31.832C111.294 31.24 111.662 30.464 111.966 29.504L112.35 30.968C111.982 32.2 111.526 33.136 110.982 33.776C110.454 34.416 109.886 34.848 109.278 35.072C108.686 35.296 108.11 35.408 107.55 35.408ZM114.51 35.408C113.966 35.408 113.494 35.328 113.094 35.168C112.694 35.024 112.366 34.8 112.11 34.496C111.854 34.176 111.662 33.784 111.534 33.32C111.422 32.84 111.366 32.28 111.366 31.64V23.336C111.366 23.096 111.454 22.92 111.63 22.808C111.806 22.696 112.07 22.64 112.422 22.64C112.758 22.64 113.006 22.696 113.166 22.808C113.342 22.904 113.43 23.064 113.43 23.288V31.64C113.43 32.36 113.534 32.872 113.742 33.176C113.966 33.464 114.374 33.608 114.966 33.608C115.11 33.608 115.214 33.704 115.278 33.896C115.358 34.072 115.382 34.28 115.35 34.52C115.334 34.744 115.254 34.944 115.11 35.12C114.982 35.312 114.782 35.408 114.51 35.408ZM114.505 35.408C114.281 35.408 114.121 35.312 114.025 35.12C113.913 34.944 113.873 34.744 113.905 34.52C113.921 34.28 114.017 34.072 114.193 33.896C114.369 33.704 114.625 33.608 114.961 33.608C115.441 33.608 115.873 33.544 116.257 33.416C116.625 33.288 116.945 33.096 117.217 32.84C117.489 32.584 117.705 32.264 117.865 31.88C118.041 31.496 118.161 31.048 118.225 30.536C118.257 30.296 118.377 30.144 118.585 30.08C118.793 30 118.993 30 119.185 30.08C119.393 30.144 119.481 30.296 119.449 30.536C119.385 31.384 119.217 32.12 118.945 32.744C118.673 33.352 118.321 33.856 117.889 34.256C117.457 34.64 116.953 34.928 116.377 35.12C115.817 35.312 115.193 35.408 114.505 35.408ZM128.665 45.488C128.585 45.696 128.425 45.784 128.185 45.752C127.945 45.736 127.737 45.64 127.561 45.464C127.401 45.288 127.369 45.08 127.465 44.84C127.625 44.408 127.857 43.92 128.161 43.376C128.465 42.848 128.849 42.28 129.313 41.672C129.777 41.064 130.313 40.456 130.921 39.848C131.017 39.768 131.137 39.712 131.281 39.68C131.441 39.664 131.617 39.752 131.809 39.944C131.985 40.12 132.073 40.288 132.073 40.448C132.089 40.624 132.033 40.776 131.905 40.904C131.441 41.368 130.993 41.872 130.561 42.416C130.145 42.96 129.769 43.496 129.433 44.024C129.097 44.568 128.841 45.056 128.665 45.488ZM122.809 35.408C121.897 35.408 121.089 35.192 120.385 34.76C119.681 34.312 119.129 33.64 118.729 32.744C118.329 31.848 118.129 30.72 118.129 29.36C118.129 28.528 118.201 27.76 118.345 27.056C118.505 26.352 118.737 25.72 119.041 25.16C119.345 24.6 119.713 24.128 120.145 23.744C120.577 23.36 121.073 23.064 121.633 22.856C122.193 22.648 122.809 22.544 123.481 22.544C124.009 22.544 124.545 22.616 125.089 22.76C125.649 22.904 126.169 23.112 126.649 23.384V23.264C126.649 23.056 126.737 22.904 126.913 22.808C127.089 22.696 127.345 22.64 127.681 22.64C128.033 22.64 128.289 22.696 128.449 22.808C128.625 22.904 128.713 23.056 128.713 23.264V45.248C128.713 45.456 128.625 45.608 128.449 45.704C128.289 45.816 128.033 45.872 127.681 45.872C127.345 45.872 127.089 45.816 126.913 45.704C126.737 45.608 126.649 45.456 126.649 45.248V33.368C126.265 33.912 125.849 34.336 125.401 34.64C124.969 34.928 124.529 35.128 124.081 35.24C123.649 35.352 123.225 35.408 122.809 35.408ZM120.241 29.264C120.241 30.144 120.345 30.904 120.553 31.544C120.761 32.168 121.073 32.648 121.489 32.984C121.921 33.32 122.457 33.488 123.097 33.488C123.561 33.488 124.001 33.408 124.417 33.248C124.849 33.088 125.249 32.824 125.617 32.456C126.001 32.088 126.345 31.608 126.649 31.016V25.304C126.153 24.984 125.665 24.76 125.185 24.632C124.705 24.504 124.209 24.44 123.697 24.44C123.281 24.44 122.897 24.504 122.545 24.632C122.193 24.76 121.873 24.952 121.585 25.208C121.297 25.464 121.049 25.784 120.841 26.168C120.649 26.552 120.497 27 120.385 27.512C120.289 28.024 120.241 28.608 120.241 29.264ZM142.725 35.336C142.021 35.336 141.669 35.112 141.669 34.664V13.16C141.669 12.936 141.757 12.776 141.933 12.68C142.109 12.568 142.373 12.512 142.725 12.512H153.285C153.525 12.512 153.693 12.584 153.789 12.728C153.901 12.856 153.957 13.104 153.957 13.472C153.957 13.824 153.901 14.072 153.789 14.216C153.693 14.36 153.525 14.432 153.285 14.432H143.781V22.784H151.701C151.941 22.784 152.109 22.856 152.205 23C152.301 23.128 152.349 23.376 152.349 23.744C152.349 24.096 152.301 24.344 152.205 24.488C152.109 24.632 151.941 24.704 151.701 24.704H143.781V34.664C143.781 34.888 143.693 35.056 143.517 35.168C143.341 35.28 143.077 35.336 142.725 35.336ZM156.611 35.816C156.115 35.816 155.739 35.68 155.483 35.408C155.243 35.152 155.123 34.768 155.123 34.256C155.123 33.728 155.243 33.336 155.483 33.08C155.739 32.824 156.115 32.696 156.611 32.696C157.123 32.696 157.499 32.824 157.739 33.08C157.995 33.336 158.123 33.728 158.123 34.256C158.123 34.768 157.995 35.152 157.739 35.408C157.499 35.68 157.123 35.816 156.611 35.816Z" fill="#F5C600"/>
<path d="M56.648 34.784L55.8159 35.3387L55.8362 35.3691L55.8586 35.3979L56.648 34.784ZM56.648 33.296L55.8586 32.6821L55.8533 32.689L55.848 32.696L56.648 33.296ZM59.696 33.08V34.08H60.696V33.08H59.696ZM59.696 14.432H60.696V13.432H59.696V14.432ZM56.648 14.216L55.8159 14.7707L55.8362 14.8011L55.8586 14.8299L56.648 14.216ZM56.648 12.728L55.8586 12.1141L55.8533 12.121L55.848 12.128L56.648 12.728ZM64.856 12.728L64.024 13.2827L64.0393 13.3058L64.056 13.328L64.856 12.728ZM61.784 14.432V13.432H60.784V14.432H61.784ZM61.784 33.08H60.784V34.08H61.784V33.08ZM64.856 33.296L64.024 33.8507L64.0393 33.8738L64.056 33.896L64.856 33.296ZM57.176 34C57.1531 34 57.1835 33.9962 57.2426 34.0205C57.3093 34.0477 57.3814 34.0981 57.4374 34.1701L55.8586 35.3979C56.2166 35.8581 56.7328 36 57.176 36V34ZM57.4801 34.2293C57.5076 34.2706 57.5199 34.3014 57.5237 34.3117C57.5275 34.3222 57.5256 34.3198 57.5218 34.3C57.5136 34.2576 57.504 34.1751 57.504 34.04H55.504C55.504 34.4221 55.5446 34.9317 55.8159 35.3387L57.4801 34.2293ZM57.504 34.04C57.504 33.9692 57.5063 33.911 57.51 33.8642C57.5137 33.8169 57.5183 33.7858 57.5218 33.768C57.5254 33.7495 57.5261 33.7531 57.5189 33.7721C57.5118 33.7905 57.4918 33.8376 57.448 33.896L55.848 32.696C55.6716 32.9313 55.5961 33.1924 55.5582 33.388C55.518 33.5959 55.504 33.8183 55.504 34.04H57.504ZM57.4374 33.9099C57.3814 33.9819 57.3093 34.0323 57.2426 34.0595C57.1835 34.0838 57.1531 34.08 57.176 34.08V32.08C56.7328 32.08 56.2166 32.2219 55.8586 32.6821L57.4374 33.9099ZM57.176 34.08H59.696V32.08H57.176V34.08ZM60.696 33.08V14.432H58.696V33.08H60.696ZM59.696 13.432H57.176V15.432H59.696V13.432ZM57.176 13.432C57.1531 13.432 57.1835 13.4282 57.2426 13.4525C57.3093 13.4797 57.3814 13.5301 57.4374 13.6021L55.8586 14.8299C56.2166 15.2901 56.7328 15.432 57.176 15.432V13.432ZM57.4801 13.6613C57.5076 13.7026 57.5199 13.7334 57.5237 13.7437C57.5275 13.7542 57.5256 13.7518 57.5218 13.732C57.5136 13.6896 57.504 13.6071 57.504 13.472H55.504C55.504 13.8541 55.5446 14.3637 55.8159 14.7707L57.4801 13.6613ZM57.504 13.472C57.504 13.4012 57.5063 13.343 57.51 13.2962C57.5137 13.2489 57.5183 13.2178 57.5218 13.2C57.5254 13.1815 57.5261 13.1851 57.5189 13.2041C57.5118 13.2225 57.4918 13.2696 57.448 13.328L55.848 12.128C55.6716 12.3633 55.5961 12.6244 55.5582 12.82C55.518 13.0279 55.504 13.2503 55.504 13.472H57.504ZM57.4374 13.3419C57.3814 13.4139 57.3093 13.4643 57.2426 13.4915C57.1835 13.5158 57.1531 13.512 57.176 13.512V11.512C56.7328 11.512 56.2166 11.6539 55.8586 12.1141L57.4374 13.3419ZM57.176 13.512H64.352V11.512H57.176V13.512ZM64.352 13.512C64.3769 13.512 64.3369 13.5164 64.2641 13.4851C64.1803 13.4492 64.0897 13.3814 64.024 13.2827L65.6881 12.1733C65.34 11.6512 64.7851 11.512 64.352 11.512V13.512ZM64.056 13.328C64.0122 13.2696 63.9922 13.2225 63.9851 13.2041C63.9779 13.1851 63.9786 13.1815 63.9822 13.2C63.9857 13.2178 63.9903 13.2489 63.994 13.2962C63.9977 13.343 64 13.4012 64 13.472H66C66 13.2503 65.986 13.0279 65.9458 12.82C65.9079 12.6244 65.8324 12.3633 65.656 12.128L64.056 13.328ZM64 13.472C64 13.6071 63.9904 13.6896 63.9822 13.732C63.9784 13.7518 63.9765 13.7542 63.9803 13.7437C63.9841 13.7334 63.9964 13.7026 64.024 13.6613L65.6881 14.7707C65.9594 14.3637 66 13.8541 66 13.472H64ZM64.024 13.6613C64.0897 13.5626 64.1803 13.4948 64.2641 13.4589C64.3369 13.4276 64.3769 13.432 64.352 13.432V15.432C64.7851 15.432 65.34 15.2928 65.6881 14.7707L64.024 13.6613ZM64.352 13.432H61.784V15.432H64.352V13.432ZM60.784 14.432V33.08H62.784V14.432H60.784ZM61.784 34.08H64.352V32.08H61.784V34.08ZM64.352 34.08C64.3769 34.08 64.3369 34.0844 64.2641 34.0531C64.1803 34.0172 64.0897 33.9494 64.024 33.8507L65.6881 32.7413C65.34 32.2192 64.7851 32.08 64.352 32.08V34.08ZM64.056 33.896C64.0122 33.8376 63.9922 33.7905 63.9851 33.7721C63.9779 33.7531 63.9786 33.7495 63.9822 33.768C63.9857 33.7858 63.9903 33.8169 63.994 33.8642C63.9977 33.911 64 33.9692 64 34.04H66C66 33.8183 65.986 33.5959 65.9458 33.388C65.9079 33.1924 65.8324 32.9313 65.656 32.696L64.056 33.896ZM64 34.04C64 34.1751 63.9904 34.2576 63.9822 34.3C63.9784 34.3198 63.9765 34.3222 63.9803 34.3117C63.9841 34.3014 63.9964 34.2706 64.024 34.2293L65.6881 35.3387C65.9594 34.9317 66 34.4221 66 34.04H64ZM64.024 34.2293C64.0897 34.1306 64.1803 34.0628 64.2641 34.0269C64.3369 33.9956 64.3769 34 64.352 34V36C64.7851 36 65.34 35.8608 65.6881 35.3387L64.024 34.2293ZM64.352 34H57.176V36H64.352V34ZM69.5716 35.192L69.8715 34.238L69.5716 35.192ZM68.0836 34.544L67.5508 35.3902L67.5622 35.3974L67.5738 35.4043L68.0836 34.544ZM67.0516 33.728L66.299 34.3865L66.311 34.4002L66.3234 34.4134L67.0516 33.728ZM66.8836 33.272L65.8871 33.189L65.8836 33.2304V33.272H66.8836ZM67.2196 32.648L66.5125 31.9409L66.4994 31.954L66.4868 31.9675L67.2196 32.648ZM67.6996 32.336L67.4827 31.3598V31.3598L67.6996 32.336ZM68.1796 32.48L68.7831 31.6826L68.7755 31.6769L68.7678 31.6713L68.1796 32.48ZM69.8596 33.488L69.4691 34.4086L69.4857 34.4156L69.5025 34.4221L69.8596 33.488ZM72.6916 33.584L73.056 34.5152L73.0733 34.5085L73.0904 34.5011L72.6916 33.584ZM73.5556 32.888L72.7506 32.2948L72.7402 32.3089L72.7303 32.3233L73.5556 32.888ZM73.4356 30.632L72.7479 31.358L72.7582 31.3677L72.7688 31.3772L73.4356 30.632ZM72.2596 29.984L71.9336 30.9294L71.9528 30.936L71.9723 30.9418L72.2596 29.984ZM70.7716 29.528L70.4816 30.485L70.495 30.4891L70.5085 30.4928L70.7716 29.528ZM69.2596 28.928L68.7765 29.8036L68.7943 29.8134L68.8124 29.8224L69.2596 28.928ZM68.1556 24.248L67.3236 23.6933L67.3177 23.7022L67.312 23.7111L68.1556 24.248ZM69.5956 23L69.1576 22.101L69.1484 22.1056L69.5956 23ZM73.4356 22.76L73.1568 23.7203L73.1749 23.7256L73.1931 23.7301L73.4356 22.76ZM74.7556 23.288L74.2357 24.1422L74.2572 24.1553L74.2793 24.1673L74.7556 23.288ZM75.6916 23.984L74.9621 24.6679L74.9731 24.6797L74.9845 24.6911L75.6916 23.984ZM75.9076 24.512L74.9238 24.3331L74.9166 24.3726L74.9126 24.4125L75.9076 24.512ZM75.6196 25.04L74.8825 24.3643L74.8691 24.3789L74.8562 24.3941L75.6196 25.04ZM75.0916 25.4L75.1911 26.395L75.231 26.391L75.2705 26.3839L75.0916 25.4ZM74.5396 25.208L73.9584 26.0217L73.9644 26.026L73.9704 26.0302L74.5396 25.208ZM73.1956 24.464L72.83 25.3948L73.1956 24.464ZM70.2676 24.632L70.862 25.4362L70.8676 25.432L70.2676 24.632ZM70.1476 26.936L69.461 27.663L69.4817 27.6826L69.5035 27.7009L70.1476 26.936ZM71.2996 27.584L70.945 28.519L70.964 28.5262L70.9834 28.5327L71.2996 27.584ZM72.8116 28.064L72.5216 29.0211L72.5295 29.0234L72.8116 28.064ZM74.3236 28.688L73.8405 29.5636L73.8468 29.567L73.853 29.5704L74.3236 28.688ZM75.4756 29.744L74.6344 30.2848L74.6458 30.3024L74.6578 30.3195L75.4756 29.744ZM75.4276 33.44L74.5524 32.9563L74.5475 32.9652L74.5427 32.9743L75.4276 33.44ZM73.9396 34.904L73.4593 34.0269L73.9396 34.904ZM71.3716 34.456C70.8242 34.456 70.3261 34.3809 69.8715 34.238L69.2718 36.146C69.9372 36.3551 70.6391 36.456 71.3716 36.456V34.456ZM69.8715 34.238C69.3728 34.0813 68.9493 33.8946 68.5934 33.6837L67.5738 35.4043C68.082 35.7054 68.6504 35.9507 69.2718 36.146L69.8715 34.238ZM68.6164 33.6978C68.2319 33.4556 67.961 33.2351 67.7798 33.0426L66.3234 34.4134C66.6543 34.7649 67.0714 35.0884 67.5508 35.3902L68.6164 33.6978ZM67.8042 33.0695C67.8247 33.0929 67.8476 33.1279 67.864 33.1723C67.8801 33.2162 67.8836 33.2523 67.8836 33.272H65.8836C65.8836 33.681 66.0216 34.0694 66.299 34.3865L67.8042 33.0695ZM67.8802 33.355C67.8745 33.4232 67.8549 33.4558 67.8601 33.4461C67.8625 33.4415 67.8699 33.4289 67.8852 33.4082C67.9004 33.3876 67.9222 33.361 67.9524 33.3285L66.4868 31.9675C66.21 32.2657 65.9298 32.6766 65.8871 33.189L67.8802 33.355ZM67.9267 33.3551C67.9522 33.3296 67.9729 33.3109 67.9888 33.2977C68.0048 33.2844 68.0141 33.2781 68.0166 33.2764C68.0192 33.2747 68.0127 33.2793 67.997 33.2863C67.9812 33.2934 67.9541 33.3038 67.9166 33.3122L67.4827 31.3598C67.0652 31.4526 66.7408 31.7127 66.5125 31.9409L67.9267 33.3551ZM67.9166 33.3122C67.8006 33.338 67.702 33.3243 67.6403 33.3058C67.5852 33.2893 67.5685 33.2721 67.5915 33.2887L68.7678 31.6713C68.4717 31.4559 68.0181 31.2408 67.4827 31.3598L67.9166 33.3122ZM67.5762 33.2774C68.2157 33.7614 68.8469 34.1446 69.4691 34.4086L70.2502 32.5674C69.8163 32.3834 69.3276 32.0946 68.7831 31.6826L67.5762 33.2774ZM69.5025 34.4221C70.141 34.6662 70.7823 34.8 71.4196 34.8V32.8C71.065 32.8 70.6662 32.7258 70.2168 32.5539L69.5025 34.4221ZM71.4196 34.8C71.9983 34.8 72.5499 34.7133 73.056 34.5152L72.3272 32.6528C72.0973 32.7427 71.8009 32.8 71.4196 32.8V34.8ZM73.0904 34.5011C73.6149 34.273 74.0573 33.9257 74.3809 33.4527L72.7303 32.3233C72.638 32.4583 72.5044 32.575 72.2929 32.6669L73.0904 34.5011ZM74.3607 33.4812C74.7242 32.9878 74.8916 32.4146 74.8916 31.808H72.8916C72.8916 32.0334 72.835 32.1802 72.7506 32.2948L74.3607 33.4812ZM74.8916 31.808C74.8916 31.0895 74.6703 30.3949 74.1024 29.8868L72.7688 31.3772C72.8089 31.4131 72.8916 31.5025 72.8916 31.808H74.8916ZM74.1234 29.906C73.6856 29.4914 73.1475 29.2063 72.547 29.0262L71.9723 30.9418C72.3317 31.0497 72.5776 31.1966 72.7479 31.358L74.1234 29.906ZM72.5856 29.0386C72.0987 28.8707 71.5815 28.7124 71.0347 28.5632L70.5085 30.4928C71.0177 30.6316 71.4926 30.7773 71.9336 30.9294L72.5856 29.0386ZM71.0616 28.571C70.5862 28.4269 70.1349 28.2476 69.7068 28.0336L68.8124 29.8224C69.3443 30.0884 69.9011 30.3091 70.4816 30.485L71.0616 28.571ZM69.7427 28.0524C69.4197 27.8742 69.1526 27.6311 68.9351 27.3105L67.2801 28.4335C67.6706 29.0089 68.1715 29.4698 68.7765 29.8036L69.7427 28.0524ZM68.9351 27.3105C68.7815 27.0842 68.6516 26.6962 68.6516 26.048H66.6516C66.6516 26.9358 66.8257 27.7638 67.2801 28.4335L68.9351 27.3105ZM68.6516 26.048C68.6516 25.5515 68.773 25.1405 68.9993 24.7849L67.312 23.7111C66.8663 24.4115 66.6516 25.2005 66.6516 26.048H68.6516ZM68.9877 24.8027C69.2363 24.4298 69.579 24.1263 70.0428 23.8944L69.1484 22.1056C68.3962 22.4817 67.779 23.0102 67.3236 23.6933L68.9877 24.8027ZM70.0336 23.899C70.5018 23.6709 71.0602 23.544 71.7316 23.544V21.544C70.803 21.544 69.9375 21.7211 69.1577 22.101L70.0336 23.899ZM71.7316 23.544C72.2988 23.544 72.77 23.608 73.1568 23.7203L73.7144 21.7997C73.1092 21.624 72.4444 21.544 71.7316 21.544V23.544ZM73.1931 23.7301C73.6284 23.839 73.9706 23.9808 74.2357 24.1422L75.2756 22.4338C74.8047 22.1472 74.2668 21.937 73.6782 21.7899L73.1931 23.7301ZM74.2793 24.1673C74.5911 24.3362 74.8109 24.5067 74.9621 24.6679L76.4212 23.3001C76.0924 22.9493 75.6882 22.6558 75.2319 22.4087L74.2793 24.1673ZM74.9845 24.6911C75.0062 24.7128 74.9793 24.6931 74.9521 24.6266C74.9206 24.5498 74.9035 24.4447 74.9238 24.3331L76.8915 24.6909C77.0033 24.0758 76.7084 23.5866 76.3987 23.2769L74.9845 24.6911ZM74.9126 24.4125C74.9207 24.331 74.945 24.2865 74.9457 24.2851C74.9464 24.2839 74.943 24.2904 74.9324 24.3046C74.922 24.3188 74.9059 24.3387 74.8825 24.3643L76.3568 25.7157C76.5954 25.4554 76.8555 25.0831 76.9027 24.6115L74.9126 24.4125ZM74.8562 24.3941C74.8345 24.4198 74.8175 24.4371 74.8059 24.4479C74.7943 24.4587 74.7895 24.4616 74.7923 24.4598C74.7983 24.4557 74.8392 24.4295 74.9127 24.4161L75.2705 26.3839C75.7673 26.2935 76.1321 25.9825 76.383 25.6859L74.8562 24.3941ZM74.9921 24.405C75.0841 24.3958 75.1454 24.4137 75.1621 24.4195C75.1766 24.4245 75.1594 24.4208 75.1088 24.3858L73.9704 26.0302C74.2677 26.236 74.6921 26.4449 75.1911 26.395L74.9921 24.405ZM75.1209 24.3943C74.6154 24.0333 74.0957 23.7432 73.5613 23.5332L72.83 25.3948C73.1916 25.5368 73.5678 25.7427 73.9584 26.0217L75.1209 24.3943ZM73.5613 23.5332C72.9826 23.3059 72.3606 23.2 71.7076 23.2V25.2C72.1427 25.2 72.5126 25.2701 72.83 25.3948L73.5613 23.5332ZM71.7076 23.2C70.9598 23.2 70.2572 23.3898 69.6676 23.832L70.8676 25.432C71.046 25.2982 71.3035 25.2 71.7076 25.2V23.2ZM69.6732 23.8278C69.0171 24.3128 68.7156 25.0222 68.7156 25.808H70.7156C70.7156 25.5698 70.7821 25.4952 70.862 25.4362L69.6732 23.8278ZM68.7156 25.808C68.7156 26.5004 68.9315 27.163 69.461 27.663L70.8342 26.209C70.7877 26.165 70.7156 26.0756 70.7156 25.808H68.7156ZM69.5035 27.7009C69.9121 28.045 70.4007 28.3126 70.945 28.519L71.6543 26.649C71.2705 26.5034 70.9911 26.339 70.7918 26.1711L69.5035 27.7009ZM70.9834 28.5327C71.4728 28.6958 71.9856 28.8586 72.5216 29.021L73.1016 27.107C72.5816 26.9494 72.0864 26.7922 71.6159 26.6353L70.9834 28.5327ZM72.5295 29.0234C73.0085 29.1643 73.4445 29.3451 73.8405 29.5636L74.8067 27.8124C74.2747 27.5189 73.7028 27.2837 73.0938 27.1046L72.5295 29.0234ZM73.853 29.5704C74.1857 29.7478 74.4408 29.9836 74.6344 30.2848L76.3168 29.2032C75.9344 28.6084 75.4215 28.1402 74.7942 27.8056L73.853 29.5704ZM74.6578 30.3195C74.8049 30.5285 74.9316 30.8874 74.9316 31.496H76.9316C76.9316 30.6326 76.7544 29.8235 76.2934 29.1685L74.6578 30.3195ZM74.9316 31.496C74.9316 32.0131 74.8074 32.4949 74.5524 32.9563L76.3029 33.9237C76.7199 33.1691 76.9316 32.3549 76.9316 31.496H74.9316ZM74.5427 32.9743C74.3246 33.3887 73.9795 33.742 73.4593 34.0269L74.4199 35.7811C75.2437 35.33 75.8907 34.7073 76.3125 33.9057L74.5427 32.9743ZM73.4593 34.0269C72.9778 34.2906 72.3011 34.456 71.3716 34.456V36.456C72.5221 36.456 73.5574 36.2534 74.4199 35.7811L73.4593 34.0269ZM89.5393 35.168L89.9106 34.2395L89.8944 34.233L89.878 34.2271L89.5393 35.168ZM88.5553 34.496L87.7744 35.1207L87.7822 35.1305L87.7903 35.1401L88.5553 34.496ZM87.9792 33.32L87.0054 33.5472L87.0099 33.5667L87.0153 33.5859L87.9792 33.32ZM87.2353 25.184L86.4416 25.7924L86.4479 25.8006L86.4544 25.8087L87.2353 25.184ZM84.3313 24.608L84.0681 23.6432H84.0681L84.3313 24.608ZM83.2992 25.064L82.7729 24.2137L83.2992 25.064ZM82.3633 25.904L83.1225 26.5548L83.13 26.5461L83.1372 26.5372L82.3633 25.904ZM81.5953 27.152L80.6839 26.7404L80.5953 26.9367V27.152H81.5953ZM81.3312 35.192L80.8524 34.3141L80.8228 34.3302L80.7944 34.3483L81.3312 35.192ZM79.7712 35.192L80.3081 34.3483L80.297 34.3413L80.2857 34.3345L79.7712 35.192ZM79.7712 12.296L80.2857 13.1535L80.297 13.1467L80.3081 13.1397L79.7712 12.296ZM81.3312 12.296L80.7944 13.1397L80.8228 13.1578L80.8524 13.1739L81.3312 12.296ZM81.5953 24.8H80.5953V28.1028L82.4273 25.3547L81.5953 24.8ZM82.3633 23.888L83.0499 24.615L83.051 24.614L82.3633 23.888ZM83.3232 23.168L83.8194 24.0362L83.8257 24.0326L83.832 24.0289L83.3232 23.168ZM84.4272 22.712L84.6698 23.6821L84.6886 23.6774L84.7073 23.672L84.4272 22.712ZM87.8353 23L87.3973 23.899L87.4062 23.9033L87.8353 23ZM89.3232 24.44L88.4421 24.9128L88.449 24.9257L88.4563 24.9385L89.3232 24.44ZM90.1872 33.176L89.3619 33.7407L89.3792 33.7659L89.3979 33.7899L90.1872 33.176ZM91.9153 33.896L91.0515 34.3999L91.0612 34.4166L91.0716 34.4329L91.9153 33.896ZM92.0353 34.52L91.044 34.3878L91.04 34.4182L91.0378 34.4488L92.0353 34.52ZM91.7472 35.12L91.0401 34.4129L91.0248 34.4283L91.0101 34.4443L91.7472 35.12ZM90.9552 34.408C90.5064 34.408 90.166 34.3417 89.9106 34.2395L89.1679 36.0965C89.7125 36.3143 90.3161 36.408 90.9552 36.408V34.408ZM89.878 34.2271C89.6317 34.1385 89.4548 34.0117 89.3202 33.8519L87.7903 35.1401C88.1677 35.5883 88.6468 35.9095 89.2005 36.1089L89.878 34.2271ZM89.3361 33.8713C89.1783 33.6741 89.0414 33.4098 88.9432 33.0541L87.0153 33.5859C87.1731 34.1582 87.4202 34.6779 87.7744 35.1207L89.3361 33.8713ZM88.9531 33.0928C88.8627 32.7055 88.8112 32.2249 88.8112 31.64H86.8113C86.8113 32.3351 86.8718 32.9745 87.0054 33.5472L88.9531 33.0928ZM88.8112 31.64V27.176H86.8113V31.64H88.8112ZM88.8112 27.176C88.8112 26.1861 88.5873 25.2733 88.0161 24.5593L86.4544 25.8087C86.6512 26.0547 86.8113 26.4698 86.8113 27.176H88.8112ZM88.0289 24.5756C87.3969 23.7512 86.4064 23.464 85.3633 23.464V25.464C86.0801 25.464 86.3376 25.6568 86.4416 25.7924L88.0289 24.5756ZM85.3633 23.464C84.9311 23.464 84.4986 23.5258 84.0681 23.6432L84.5944 25.5728C84.8679 25.4982 85.1234 25.464 85.3633 25.464V23.464ZM84.0681 23.6432C83.616 23.7666 83.1839 23.9593 82.7729 24.2137L83.8256 25.9143C84.0866 25.7527 84.3425 25.6414 84.5944 25.5728L84.0681 23.6432ZM82.7729 24.2137C82.33 24.4879 81.9369 24.8459 81.5893 25.2708L83.1372 26.5372C83.3656 26.2581 83.5965 26.0561 83.8256 25.9143L82.7729 24.2137ZM81.604 25.2532C81.2419 25.6756 80.9384 26.1769 80.6839 26.7404L82.5066 27.5636C82.7001 27.1351 82.9086 26.8044 83.1225 26.5548L81.604 25.2532ZM80.5953 27.152V34.736H82.5953V27.152H80.5953ZM80.5953 34.736C80.5953 34.6967 80.6047 34.6072 80.6638 34.505C80.7241 34.4008 80.8027 34.3412 80.8524 34.3141L81.8101 36.0699C82.0358 35.9468 82.2464 35.7632 82.3947 35.507C82.5418 35.2528 82.5953 34.9833 82.5953 34.736H80.5953ZM80.7944 34.3483C80.8272 34.3275 80.835 34.332 80.7936 34.3411C80.7522 34.3502 80.6784 34.36 80.5632 34.36V36.36C80.984 36.36 81.4614 36.2945 81.8681 36.0357L80.7944 34.3483ZM80.5632 34.36C80.4372 34.36 80.3556 34.3497 80.3088 34.3398C80.2611 34.3297 80.2705 34.3244 80.3081 34.3483L79.2344 36.0357C79.6467 36.2981 80.1374 36.36 80.5632 36.36V34.36ZM80.2857 34.3345C80.3487 34.3723 80.4236 34.4403 80.4762 34.5403C80.5261 34.6351 80.5312 34.7116 80.5312 34.736H78.5312C78.5312 35.2469 78.7563 35.7492 79.2568 36.0495L80.2857 34.3345ZM80.5312 34.736V12.752H78.5312V34.736H80.5312ZM80.5312 12.752C80.5312 12.7764 80.5261 12.8529 80.4762 12.9477C80.4236 13.0477 80.3487 13.1157 80.2857 13.1535L79.2568 11.4385C78.7563 11.7388 78.5312 12.2411 78.5312 12.752H80.5312ZM80.3081 13.1397C80.2705 13.1636 80.2611 13.1583 80.3088 13.1482C80.3556 13.1383 80.4372 13.128 80.5632 13.128V11.128C80.1374 11.128 79.6467 11.1899 79.2344 11.4523L80.3081 13.1397ZM80.5632 13.128C80.6784 13.128 80.7522 13.1378 80.7936 13.1469C80.835 13.156 80.8272 13.1605 80.7944 13.1397L81.8681 11.4523C81.4614 11.1935 80.984 11.128 80.5632 11.128V13.128ZM80.8524 13.1739C80.8027 13.1468 80.7241 13.0872 80.6638 12.983C80.6047 12.8808 80.5953 12.7913 80.5953 12.752H82.5953C82.5953 12.5046 82.5418 12.2352 82.3947 11.981C82.2464 11.7248 82.0358 11.5412 81.8101 11.4181L80.8524 13.1739ZM80.5953 12.752V24.8H82.5953V12.752H80.5953ZM82.4273 25.3547C82.6103 25.0802 82.8177 24.8342 83.0499 24.615L81.6766 23.161C81.3328 23.4858 81.0282 23.8478 80.7632 24.2453L82.4273 25.3547ZM83.051 24.614C83.3017 24.3764 83.5581 24.1855 83.8194 24.0362L82.8271 22.2998C82.4164 22.5345 82.0328 22.8236 81.6755 23.162L83.051 24.614ZM83.832 24.0289C84.1037 23.8683 84.3824 23.754 84.6698 23.6821L84.1847 21.7419C83.7041 21.862 83.2468 22.0517 82.8145 22.3071L83.832 24.0289ZM84.7073 23.672C84.9933 23.5886 85.3065 23.544 85.6513 23.544V21.544C85.132 21.544 84.6292 21.6114 84.1472 21.752L84.7073 23.672ZM85.6513 23.544C86.3613 23.544 86.9342 23.6734 87.3973 23.899L88.2732 22.101C87.4883 21.7186 86.6052 21.544 85.6513 21.544V23.544ZM87.4062 23.9033C87.8432 24.1109 88.1855 24.4347 88.4421 24.9128L90.2044 23.9672C89.757 23.1333 89.1073 22.4971 88.2643 22.0967L87.4062 23.9033ZM88.4563 24.9385C88.7075 25.3753 88.8753 26.032 88.8753 26.984H90.8753C90.8753 25.824 90.675 24.7847 90.1902 23.9415L88.4563 24.9385ZM88.8753 26.984V31.64H90.8753V26.984H88.8753ZM88.8753 31.64C88.8753 32.4003 88.9744 33.1743 89.3619 33.7407L91.0126 32.6113C90.9841 32.5697 90.8753 32.3197 90.8753 31.64H88.8753ZM89.3979 33.7899C89.904 34.4407 90.7021 34.608 91.4113 34.608V32.608C91.1898 32.608 91.0598 32.5802 90.9941 32.557C90.9366 32.5367 90.9507 32.5288 90.9766 32.5621L89.3979 33.7899ZM91.4113 34.608C91.377 34.608 91.2986 34.5994 91.2091 34.5482C91.1193 34.4969 91.0706 34.4326 91.0515 34.3999L92.779 33.3921C92.4861 32.89 91.9875 32.608 91.4113 32.608V34.608ZM91.0716 34.4329C91.0659 34.424 91.0605 34.4135 91.0559 34.402C91.0514 34.3906 91.0487 34.3805 91.0472 34.3728C91.0442 34.3571 91.0478 34.3596 91.044 34.3878L93.0265 34.6522C93.0843 34.2183 93.0172 33.765 92.7589 33.3591L91.0716 34.4329ZM91.0378 34.4488C91.0381 34.4441 91.0391 34.4368 91.0414 34.4281C91.0437 34.4193 91.0467 34.4115 91.0497 34.4053C91.0562 34.3919 91.058 34.3951 91.0401 34.4129L92.4544 35.8271C92.7807 35.5008 92.9977 35.0817 93.0327 34.5912L91.0378 34.4488ZM91.0101 34.4443C91.0229 34.4304 91.0371 34.4184 91.0511 34.4093C91.0648 34.4004 91.074 34.3967 91.0755 34.3962C91.0768 34.3957 91.043 34.408 90.9552 34.408V36.408C91.4849 36.408 92.0592 36.2595 92.4844 35.7957L91.0101 34.4443ZM90.47 35.12L91.3644 34.6728L91.3414 34.6266L91.3137 34.5831L90.47 35.12ZM90.35 34.52L91.34 34.6614L91.3453 34.6241L91.3478 34.5865L90.35 34.52ZM90.638 33.896L91.3451 34.6031L91.3605 34.5877L91.3752 34.5717L90.638 33.896ZM92.894 33.32L92.5116 32.3959L92.5001 32.4009L92.894 33.32ZM94.142 32.528L93.4677 31.7895L94.142 32.528ZM95.126 31.328L94.2895 30.78L94.2828 30.7902L94.2764 30.8006L95.126 31.328ZM95.894 29.816L94.9655 29.4446L94.9627 29.4517L94.9599 29.4589L95.894 29.816ZM96.326 29.504L96.1616 30.4904L96.2021 30.4971L96.243 30.5005L96.326 29.504ZM96.806 29.744L96.0586 30.4084L96.0781 30.4303L96.0989 30.4511L96.806 29.744ZM96.95 30.224L97.9041 30.5233L97.9098 30.5053L97.9148 30.4871L96.95 30.224ZM95.99 32.408L95.1325 31.8935V31.8935L95.99 32.408ZM94.646 34.04L93.9875 33.2874L93.9816 33.2926L93.9757 33.2979L94.646 34.04ZM92.966 35.048L92.6281 34.1068L92.6134 34.1121L92.5988 34.1178L92.966 35.048ZM90.95 34.408C90.9827 34.408 91.0725 34.4161 91.1765 34.4785C91.283 34.5424 91.3405 34.6249 91.3644 34.6728L89.5756 35.5672C89.6955 35.8071 89.881 36.0336 90.1475 36.1935C90.4115 36.3519 90.6932 36.408 90.95 36.408V34.408ZM91.3137 34.5831C91.3224 34.5969 91.3318 34.618 91.3366 34.6419C91.3411 34.6645 91.3382 34.6734 91.34 34.6614L89.3601 34.3786C89.2974 34.8173 89.375 35.2618 89.6263 35.6569L91.3137 34.5831ZM91.3478 34.5865C91.348 34.5834 91.3482 34.5845 91.3471 34.5885C91.3461 34.5927 91.3444 34.5978 91.342 34.6031C91.3396 34.6082 91.3375 34.6113 91.337 34.612C91.3366 34.6126 91.3387 34.6095 91.3451 34.6031L89.9309 33.1889C89.5901 33.5296 89.3849 33.9627 89.3522 34.4535L91.3478 34.5865ZM91.3752 34.5717C91.365 34.5828 91.3528 34.5933 91.3397 34.6021C91.3268 34.6107 91.317 34.6149 91.3131 34.6163C91.3064 34.6188 91.3314 34.608 91.406 34.608V32.608C90.8758 32.608 90.3175 32.7657 89.9008 33.2203L91.3752 34.5717ZM91.406 34.608C92.0697 34.608 92.7017 34.4904 93.2879 34.2391L92.5001 32.4009C92.1903 32.5336 91.8303 32.608 91.406 32.608V34.608ZM93.2764 34.244C93.8469 34.0079 94.3618 33.6814 94.8163 33.2665L93.4677 31.7895C93.1862 32.0466 92.8691 32.2481 92.5116 32.396L93.2764 34.244ZM94.8163 33.2665C95.2583 32.8629 95.6438 32.39 95.9756 31.8554L94.2764 30.8006C94.0322 31.194 93.7617 31.5211 93.4677 31.7895L94.8163 33.2665ZM95.9625 31.876C96.3076 31.3492 96.5957 30.7808 96.8281 30.1731L94.9599 29.4589C94.7763 29.9392 94.5524 30.3788 94.2895 30.78L95.9625 31.876ZM96.8225 30.1874C96.8304 30.1677 96.796 30.2701 96.6595 30.3687C96.587 30.421 96.4987 30.4623 96.4005 30.4833C96.3043 30.5039 96.2213 30.5003 96.1616 30.4904L96.4904 28.5176C96.1588 28.4623 95.7988 28.5232 95.4885 28.7473C95.208 28.9499 95.0536 29.2243 94.9655 29.4446L96.8225 30.1874ZM96.243 30.5005C96.222 30.4988 96.1851 30.4916 96.1428 30.4704C96.1005 30.4493 96.0725 30.4241 96.0586 30.4084L97.5534 29.0796C97.2548 28.7437 96.8569 28.5448 96.409 28.5075L96.243 30.5005ZM96.0989 30.4511C96.0793 30.4315 96.0251 30.369 95.9922 30.2593C95.9575 30.1437 95.9647 30.0362 95.9852 29.9609L97.9148 30.4871C98.0698 29.9188 97.8752 29.3989 97.5131 29.0369L96.0989 30.4511ZM95.9959 29.9247C95.7601 30.6761 95.4705 31.3301 95.1325 31.8935L96.8475 32.9225C97.2775 32.2059 97.6279 31.4039 97.9041 30.5233L95.9959 29.9247ZM95.1325 31.8935C94.7969 32.4529 94.414 32.9143 93.9875 33.2874L95.3045 34.7926C95.902 34.2697 96.4151 33.6431 96.8475 32.9225L95.1325 31.8935ZM93.9757 33.2979C93.5757 33.6592 93.1284 33.9272 92.6281 34.1068L93.3039 35.9892C94.0516 35.7208 94.7243 35.3168 95.3163 34.7821L93.9757 33.2979ZM92.5988 34.1178C92.1216 34.3062 91.5761 34.408 90.95 34.408V36.408C91.7959 36.408 92.5944 36.2698 93.3332 35.9782L92.5988 34.1178ZM93.374 45.752L93.7127 44.8111L93.7015 44.8071L93.6902 44.8033L93.374 45.752ZM92.342 45.176L92.9861 44.4111L92.974 44.4009L92.9616 44.3911L92.342 45.176ZM91.622 44.312L90.7276 44.7592L90.7318 44.7677L90.7362 44.776L91.622 44.312ZM91.598 43.688L92.4924 44.1352L92.5078 44.1044L92.5211 44.0726L91.598 43.688ZM92.102 43.16L91.5875 42.3025L91.5797 42.3072L91.572 42.312L92.102 43.16ZM92.702 42.944L92.8015 41.949L92.7519 41.944H92.702V42.944ZM93.206 43.256L92.4688 43.9318L92.4778 43.9414L93.206 43.256ZM93.974 43.904L94.5405 43.08L94.5225 43.0676L94.504 43.056L93.974 43.904ZM95.654 43.688L94.7503 43.2599L94.7461 43.2687L94.7421 43.2776L95.654 43.688ZM95.87 24.92H96.87V23.92H95.87V24.92ZM93.374 24.68L92.5548 25.2535L93.374 24.68ZM95.87 23V24H96.87V23H95.87ZM97.814 12.44L97.387 11.5357L97.3771 11.5405L97.814 12.44ZM101.606 12.464L102.074 11.5802V11.5802L101.606 12.464ZM102.95 13.448L102.227 14.1392L102.235 14.1472L102.243 14.1551L102.95 13.448ZM103.142 14L104.107 14.2631L104.11 14.2529L104.112 14.2425L103.142 14ZM102.806 14.552L103.513 15.2591L103.528 15.2437L103.543 15.2277L102.806 14.552ZM102.23 14.912L102.409 15.8959L102.409 15.8959L102.23 14.912ZM101.654 14.768L101.066 15.5767L101.097 15.5994L101.13 15.6197L101.654 14.768ZM98.438 14.408L99.1089 15.1495L98.438 14.408ZM97.934 23H96.934V24H97.934V23ZM97.934 24.92V23.92H96.934V24.92H97.934ZM97.478 44.576L96.6254 44.0534L96.6192 44.0636L96.6132 44.0739L97.478 44.576ZM96.278 45.632L95.9016 44.7055L95.8839 44.7127L95.8664 44.7206L96.278 45.632ZM94.622 44.968C94.3036 44.968 94.0023 44.9154 93.7127 44.8111L93.0353 46.6929C93.5457 46.8766 94.0764 46.968 94.622 46.968V44.968ZM93.6902 44.8033C93.4239 44.7145 93.1916 44.5841 92.9861 44.4111L91.6979 45.9409C92.1004 46.2799 92.5561 46.5335 93.0578 46.7007L93.6902 44.8033ZM92.9616 44.3911C92.7655 44.2363 92.6172 44.0568 92.5078 43.848L90.7362 44.776C90.9788 45.2392 91.3105 45.6357 91.7224 45.9609L92.9616 44.3911ZM92.5164 43.8648C92.5114 43.8546 92.5288 43.8855 92.5313 43.9496C92.5339 44.0191 92.5172 44.0856 92.4924 44.1352L90.7036 43.2408C90.4422 43.7636 90.5014 44.3069 90.7276 44.7592L92.5164 43.8648ZM92.5211 44.0726C92.5066 44.1074 92.494 44.1165 92.5074 44.1025C92.5219 44.0873 92.5586 44.0539 92.632 44.008L91.572 42.312C91.216 42.5345 90.8634 42.8511 90.6749 43.3034L92.5211 44.0726ZM92.6165 44.0175C92.6972 43.9691 92.7476 43.9472 92.7707 43.9389C92.7813 43.9351 92.7809 43.936 92.7706 43.9381C92.7603 43.9402 92.7366 43.944 92.702 43.944V41.944C92.2708 41.944 91.8815 42.1261 91.5875 42.3025L92.6165 44.0175ZM92.6025 43.939C92.5004 43.9288 92.438 43.8944 92.4216 43.8843C92.4075 43.8755 92.4244 43.8832 92.4688 43.9317L93.9432 42.5803C93.698 42.3129 93.3187 42.0007 92.8015 41.949L92.6025 43.939ZM92.4778 43.9414C92.7793 44.2617 93.1004 44.5373 93.444 44.752L94.504 43.056C94.3356 42.9507 94.1447 42.7943 93.9342 42.5706L92.4778 43.9414ZM93.4075 44.728C93.8263 45.016 94.303 45.168 94.814 45.168V43.168C94.717 43.168 94.6337 43.144 94.5405 43.08L93.4075 44.728ZM94.814 45.168C95.1467 45.168 95.5033 45.1041 95.8321 44.9162C96.172 44.722 96.4153 44.4332 96.5659 44.0984L94.7421 43.2776C94.7434 43.2748 94.7515 43.2581 94.771 43.236C94.7911 43.2132 94.8154 43.1938 94.8399 43.1798C94.8887 43.1519 94.8973 43.168 94.814 43.168V45.168ZM96.5577 44.1161C96.7844 43.6376 96.87 43.0952 96.87 42.536H94.87C94.87 42.9048 94.8116 43.1305 94.7503 43.2599L96.5577 44.1161ZM96.87 42.536V24.92H94.87V42.536H96.87ZM95.87 23.92H93.83V25.92H95.87V23.92ZM93.83 23.92C93.8769 23.92 93.9539 23.931 94.0377 23.9751C94.121 24.0189 94.1705 24.0741 94.1932 24.1065L92.5548 25.2535C92.8501 25.6753 93.305 25.92 93.83 25.92V23.92ZM94.1932 24.1065C94.2268 24.1545 94.2282 24.1798 94.2218 24.1528C94.2155 24.1255 94.206 24.0649 94.206 23.96H92.206C92.206 24.366 92.2715 24.8488 92.5548 25.2535L94.1932 24.1065ZM94.206 23.96C94.206 23.849 94.2149 23.7801 94.2225 23.744C94.2302 23.7067 94.2321 23.725 94.204 23.77C94.1716 23.8218 94.1101 23.8912 94.0141 23.9424C93.9207 23.9922 93.8412 24 93.806 24V22C93.2862 22 92.8036 22.2371 92.508 22.71C92.2614 23.1046 92.206 23.5682 92.206 23.96H94.206ZM93.806 24H95.87V22H93.806V24ZM96.87 23V16.064H94.87V23H96.87ZM96.87 16.064C96.87 15.2229 97.0323 14.6484 97.2713 14.2639L95.5727 13.2081C95.0757 14.0076 94.87 14.9851 94.87 16.064H96.87ZM97.2713 14.2639C97.5519 13.8125 97.8805 13.5194 98.2509 13.3395L97.3771 11.5405C96.6275 11.9046 96.0281 12.4755 95.5727 13.2081L97.2713 14.2639ZM98.241 13.3442C98.6864 13.1339 99.1408 13.032 99.614 13.032V11.032C98.8392 11.032 98.0936 11.2021 97.387 11.5357L98.241 13.3442ZM99.614 13.032C100.278 13.032 100.772 13.1542 101.138 13.3478L102.074 11.5802C101.352 11.1978 100.518 11.032 99.614 11.032V13.032ZM101.138 13.3478C101.607 13.5958 101.963 13.8629 102.227 14.1392L103.673 12.7568C103.233 12.2971 102.693 11.9082 102.074 11.5802L101.138 13.3478ZM102.243 14.1551C102.253 14.1651 102.215 14.1309 102.186 14.0465C102.153 13.9516 102.149 13.8471 102.172 13.7575L104.112 14.2425C104.268 13.6194 104.008 13.0914 103.657 12.7409L102.243 14.1551ZM102.177 13.7369C102.182 13.7199 102.184 13.724 102.168 13.7501C102.152 13.7763 102.122 13.8187 102.069 13.8763L103.543 15.2277C103.784 14.9652 104.003 14.6443 104.107 14.2631L102.177 13.7369ZM102.099 13.8449C102.033 13.9104 101.992 13.94 101.976 13.95C101.96 13.96 101.986 13.9399 102.051 13.9281L102.409 15.8959C102.877 15.8108 103.245 15.5268 103.513 15.2591L102.099 13.8449ZM102.051 13.9281C102.117 13.9161 102.169 13.9231 102.197 13.9299C102.22 13.9357 102.214 13.9387 102.178 13.9163L101.13 15.6197C101.471 15.8293 101.914 15.9859 102.409 15.8959L102.051 13.9281ZM102.242 13.9593C101.866 13.6858 101.513 13.4573 101.186 13.2842L100.25 15.0518C100.467 15.1667 100.738 15.3382 101.066 15.5767L102.242 13.9593ZM101.186 13.2842C100.728 13.0418 100.21 12.952 99.686 12.952V14.952C99.9937 14.952 100.164 15.0062 100.25 15.0518L101.186 13.2842ZM99.686 12.952C98.9675 12.952 98.305 13.1798 97.7671 13.6665L99.1089 15.1495C99.243 15.0282 99.4125 14.952 99.686 14.952V12.952ZM97.7671 13.6665C97.0911 14.2781 96.934 15.2741 96.934 16.208H98.934C98.934 15.815 98.9717 15.5388 99.023 15.3556C99.0745 15.1716 99.124 15.1359 99.1089 15.1495L97.7671 13.6665ZM96.934 16.208V23H98.934V16.208H96.934ZM97.934 24H101.03V22H97.934V24ZM101.03 24C100.984 24 100.896 23.9894 100.796 23.9342C100.696 23.8781 100.635 23.8046 100.605 23.7545C100.578 23.7109 100.581 23.6954 100.589 23.7361C100.597 23.7754 100.606 23.847 100.606 23.96H102.606C102.606 23.5726 102.554 23.1159 102.319 22.7255C102.036 22.2537 101.561 22 101.03 22V24ZM100.606 23.96C100.606 24.073 100.597 24.1446 100.589 24.1839C100.581 24.2246 100.578 24.2091 100.605 24.1655C100.635 24.1154 100.696 24.0419 100.796 23.9858C100.896 23.9306 100.984 23.92 101.03 23.92V25.92C101.561 25.92 102.036 25.6663 102.319 25.1945C102.554 24.8041 102.606 24.3474 102.606 23.96H100.606ZM101.03 23.92H97.934V25.92H101.03V23.92ZM96.934 24.92V42.536H98.934V24.92H96.934ZM96.934 42.536C96.934 43.2992 96.7971 43.7733 96.6254 44.0534L98.3306 45.0986C98.7669 44.3867 98.934 43.5008 98.934 42.536H96.934ZM96.6132 44.0739C96.432 44.386 96.2001 44.5843 95.9016 44.7055L96.6544 46.5585C97.3799 46.2637 97.948 45.758 98.3428 45.0781L96.6132 44.0739ZM95.8664 44.7206C95.5142 44.8797 95.1048 44.968 94.622 44.968V46.968C95.3552 46.968 96.0498 46.8323 96.6896 46.5434L95.8664 44.7206ZM105.126 34.76L104.589 35.6037L104.596 35.608L104.603 35.6123L105.126 34.76ZM103.11 27.056L102.135 26.8344V26.8344L103.11 27.056ZM103.782 25.16L102.903 24.6829L102.898 24.6927L102.893 24.7027L103.782 25.16ZM104.886 23.744L104.236 22.9847L104.229 22.9906L104.222 22.9966L104.886 23.744ZM106.398 22.856L106.746 23.7934L106.398 22.856ZM110.262 22.928L109.914 23.8652L110.262 22.928ZM112.11 23.936H113.11V23.4418L112.718 23.1416L112.11 23.936ZM112.11 25.736L111.486 26.5169L113.11 27.8166V25.736H112.11ZM110.262 24.704L109.97 25.6604L109.977 25.6625L110.262 24.704ZM107.286 24.632L106.958 23.6874L106.945 23.6922L107.286 24.632ZM106.326 25.208L105.662 24.4606L105.651 24.47L105.641 24.4798L106.326 25.208ZM105.606 26.168L104.727 25.6917L104.719 25.7061L104.712 25.7208L105.606 26.168ZM105.15 27.512L104.173 27.2983L104.17 27.313L104.167 27.3277L105.15 27.512ZM105.318 31.544L104.367 31.8531L104.37 31.8602L105.318 31.544ZM106.254 32.984L105.626 33.7619L105.633 33.7677L105.64 33.7734L106.254 32.984ZM109.47 33.104L109.929 33.9927L109.939 33.9871L109.47 33.104ZM110.862 31.832L110.055 31.2425L110.052 31.2465L110.862 31.832ZM111.966 29.504L112.934 29.2503L112.057 25.9066L111.013 29.2021L111.966 29.504ZM112.35 30.968L113.308 31.2542L113.389 30.9855L113.318 30.7143L112.35 30.968ZM110.982 33.776L110.22 33.1284L110.216 33.1339L110.211 33.1396L110.982 33.776ZM109.278 35.072L108.933 34.1336L108.924 34.1367L109.278 35.072ZM113.094 35.168L113.466 34.2395L113.449 34.233L113.433 34.2271L113.094 35.168ZM112.11 34.496L111.329 35.1207L111.337 35.1305L111.345 35.1401L112.11 34.496ZM111.534 33.32L110.56 33.5472L110.565 33.5667L110.57 33.5859L111.534 33.32ZM111.63 22.808L112.167 23.6517L112.167 23.6517L111.63 22.808ZM113.166 22.808L112.593 23.6272L112.639 23.6592L112.687 23.6859L113.166 22.808ZM113.742 33.176L112.917 33.7407L112.934 33.7659L112.953 33.7899L113.742 33.176ZM115.278 33.896L114.33 34.2122L114.346 34.262L114.368 34.3098L115.278 33.896ZM115.35 34.52L114.359 34.3878L114.355 34.4182L114.353 34.4488L115.35 34.52ZM115.11 35.12L114.336 34.4868L114.305 34.5246L114.278 34.5653L115.11 35.12ZM107.55 34.408C106.803 34.408 106.18 34.2332 105.649 33.9077L104.603 35.6123C105.481 36.1508 106.474 36.408 107.55 36.408V34.408ZM105.663 33.9163C105.152 33.5911 104.718 33.0854 104.383 32.3363L102.557 33.1517C103.023 34.1946 103.693 35.0329 104.589 35.6037L105.663 33.9163ZM104.383 32.3363C104.058 31.608 103.87 30.6303 103.87 29.36H101.87C101.87 30.8097 102.082 32.088 102.557 33.1517L104.383 32.3363ZM103.87 29.36C103.87 28.5915 103.944 27.8989 104.085 27.2776L102.135 26.8344C101.956 27.6211 101.87 28.4645 101.87 29.36H103.87ZM104.085 27.2776C104.229 26.6438 104.427 26.0927 104.672 25.6173L102.893 24.7027C102.562 25.3473 102.311 26.0602 102.135 26.8344L104.085 27.2776ZM104.661 25.6371C104.916 25.1685 105.214 24.7909 105.551 24.4914L104.222 22.9966C103.695 23.4651 103.257 24.0315 102.903 24.6829L104.661 25.6371ZM105.537 24.5033C105.894 24.197 106.296 23.9609 106.746 23.7934L106.05 21.9186C105.381 22.1671 104.774 22.523 104.236 22.9847L105.537 24.5033ZM106.746 23.7934C107.182 23.6316 107.678 23.544 108.246 23.544V21.544C107.47 21.544 106.735 21.6644 106.05 21.9186L106.746 23.7934ZM108.246 23.544C108.77 23.544 109.324 23.6458 109.914 23.8652L110.611 21.9908C109.825 21.6982 109.035 21.544 108.246 21.544V23.544ZM109.914 23.8652C110.515 24.0892 111.043 24.3787 111.503 24.7304L112.718 23.1416C112.09 22.6613 111.385 22.2788 110.611 21.9908L109.914 23.8652ZM111.11 23.936V25.736H113.11V23.936H111.11ZM112.735 24.9551C112.025 24.3875 111.296 23.9681 110.547 23.7455L109.977 25.6625C110.412 25.7919 110.915 26.0605 111.486 26.5169L112.735 24.9551ZM110.555 23.7476C109.88 23.5417 109.182 23.44 108.462 23.44V25.44C108.991 25.44 109.492 25.5143 109.97 25.6604L110.555 23.7476ZM108.462 23.44C107.942 23.44 107.438 23.5203 106.958 23.6875L107.615 25.5765C107.87 25.4877 108.151 25.44 108.462 25.44V23.44ZM106.945 23.6922C106.47 23.8646 106.042 24.1231 105.662 24.4606L106.991 25.9554C107.187 25.7809 107.398 25.6554 107.628 25.5718L106.945 23.6922ZM105.641 24.4798C105.279 24.8201 104.977 25.2294 104.727 25.6917L106.486 26.6443C106.651 26.3386 106.829 26.1079 107.012 25.9362L105.641 24.4798ZM104.712 25.7208C104.476 26.1931 104.299 26.7224 104.173 27.2983L106.127 27.7257C106.225 27.2776 106.353 26.9109 106.501 26.6152L104.712 25.7208ZM104.167 27.3277C104.058 27.9137 104.006 28.5613 104.006 29.264H106.006C106.006 28.6547 106.051 28.1343 106.133 27.6963L104.167 27.3277ZM104.006 29.264C104.006 30.2186 104.119 31.088 104.367 31.8531L106.269 31.2349C106.102 30.72 106.006 30.0694 106.006 29.264H104.006ZM104.37 31.8602C104.624 32.6238 105.03 33.2808 105.626 33.7619L106.883 32.2061C106.646 32.0152 106.428 31.7122 106.267 31.2278L104.37 31.8602ZM105.64 33.7734C106.277 34.2682 107.039 34.488 107.862 34.488V32.488C107.405 32.488 107.096 32.3718 106.868 32.1946L105.64 33.7734ZM107.862 34.488C108.593 34.488 109.287 34.3242 109.929 33.9926L109.012 32.2154C108.662 32.3958 108.284 32.488 107.862 32.488V34.488ZM109.939 33.9871C110.614 33.629 111.187 33.09 111.673 32.4175L110.052 31.2465C109.705 31.726 109.351 32.035 109.001 32.2209L109.939 33.9871ZM111.67 32.4215C112.185 31.7163 112.594 30.8333 112.92 29.8059L111.013 29.2021C110.73 30.0947 110.404 30.7637 110.055 31.2425L111.67 32.4215ZM110.999 29.7577L111.383 31.2217L113.318 30.7143L112.934 29.2503L110.999 29.7577ZM111.392 30.6818C111.045 31.8445 110.64 32.6348 110.22 33.1284L111.744 34.4236C112.413 33.6372 112.92 32.5555 113.308 31.2542L111.392 30.6818ZM110.211 33.1396C109.765 33.6806 109.334 33.9857 108.933 34.1337L109.624 36.0103C110.439 35.7103 111.144 35.1514 111.754 34.4124L110.211 33.1396ZM108.924 34.1367C108.431 34.3235 107.975 34.408 107.55 34.408V36.408C108.246 36.408 108.942 36.2685 109.632 36.0073L108.924 34.1367ZM114.51 34.408C114.061 34.408 113.721 34.3417 113.466 34.2395L112.723 36.0965C113.268 36.3143 113.871 36.408 114.51 36.408V34.408ZM113.433 34.2271C113.187 34.1385 113.01 34.0117 112.875 33.8519L111.345 35.1401C111.723 35.5883 112.202 35.9095 112.756 36.1089L113.433 34.2271ZM112.891 33.8713C112.733 33.6741 112.596 33.4098 112.498 33.0541L110.57 33.5859C110.728 34.1582 110.975 34.6779 111.329 35.1207L112.891 33.8713ZM112.508 33.0928C112.418 32.7055 112.366 32.2249 112.366 31.64H110.366C110.366 32.3351 110.427 32.9745 110.56 33.5472L112.508 33.0928ZM112.366 31.64V23.336H110.366V31.64H112.366ZM112.366 23.336C112.366 23.3377 112.366 23.3932 112.327 23.4712C112.285 23.5552 112.223 23.6165 112.167 23.6517L111.093 21.9643C110.581 22.2901 110.366 22.8145 110.366 23.336H112.366ZM112.167 23.6517C112.13 23.6756 112.12 23.6703 112.168 23.6602C112.215 23.6503 112.296 23.64 112.422 23.64V21.64C111.996 21.64 111.506 21.7019 111.093 21.9643L112.167 23.6517ZM112.422 23.64C112.538 23.64 112.607 23.65 112.64 23.6574C112.674 23.665 112.646 23.6645 112.593 23.6272L113.74 21.9888C113.329 21.7012 112.832 21.64 112.422 21.64V23.64ZM112.687 23.6859C112.625 23.6518 112.545 23.5853 112.488 23.4819C112.434 23.3843 112.43 23.3067 112.43 23.288H114.43C114.43 22.7504 114.186 22.2251 113.645 21.9301L112.687 23.6859ZM112.43 23.288V31.64H114.43V23.288H112.43ZM112.43 31.64C112.43 32.4003 112.529 33.1743 112.917 33.7407L114.568 32.6113C114.539 32.5697 114.43 32.3197 114.43 31.64H112.43ZM112.953 33.7899C113.459 34.4407 114.257 34.608 114.966 34.608V32.608C114.745 32.608 114.615 32.5802 114.549 32.557C114.492 32.5367 114.506 32.5288 114.532 32.5621L112.953 33.7899ZM114.966 34.608C114.792 34.608 114.61 34.5406 114.474 34.4148C114.415 34.3607 114.379 34.3088 114.359 34.2739C114.339 34.2394 114.331 34.2162 114.33 34.2122L116.227 33.5798C116.163 33.3883 116.049 33.1464 115.831 32.9452C115.59 32.7234 115.285 32.608 114.966 32.608V34.608ZM114.368 34.3098C114.361 34.2955 114.362 34.2895 114.363 34.2986C114.364 34.309 114.366 34.3372 114.359 34.3878L116.342 34.6522C116.392 34.2729 116.364 33.8673 116.189 33.4822L114.368 34.3098ZM114.353 34.4488C114.352 34.4561 114.351 34.4605 114.351 34.4627C114.351 34.4648 114.35 34.4659 114.35 34.4666C114.35 34.4668 114.347 34.4732 114.336 34.4868L115.884 35.7532C116.157 35.4196 116.317 35.0239 116.348 34.5912L114.353 34.4488ZM114.278 34.5653C114.31 34.5182 114.363 34.4673 114.432 34.4345C114.494 34.4047 114.53 34.408 114.51 34.408V36.408C115.048 36.408 115.594 36.1978 115.942 35.6747L114.278 34.5653ZM114.025 35.12L114.919 34.6728L114.896 34.6266L114.868 34.5831L114.025 35.12ZM113.905 34.52L114.895 34.6614L114.9 34.6241L114.902 34.5865L113.905 34.52ZM114.193 33.896L114.9 34.6031L114.915 34.5877L114.93 34.5717L114.193 33.896ZM116.257 33.416L116.573 34.3648L116.585 34.3605L116.257 33.416ZM117.865 31.88L116.956 31.4633L116.948 31.4792L116.942 31.4954L117.865 31.88ZM118.225 30.536L117.233 30.4038L117.232 30.412L118.225 30.536ZM118.585 30.08L118.879 31.0358L118.912 31.0257L118.944 31.0133L118.585 30.08ZM119.185 30.08L118.8 31.0031L118.845 31.0216L118.891 31.0358L119.185 30.08ZM119.449 30.536L118.457 30.4038L118.454 30.4322L118.452 30.4607L119.449 30.536ZM118.945 32.744L119.858 33.1524L119.861 33.1436L118.945 32.744ZM117.889 34.256L118.553 35.0034L118.561 34.9967L118.568 34.9898L117.889 34.256ZM116.377 35.12L116.06 34.1713L116.052 34.1741L116.377 35.12ZM114.505 34.408C114.537 34.408 114.627 34.4161 114.731 34.4785C114.838 34.5424 114.895 34.6249 114.919 34.6728L113.13 35.5672C113.25 35.8071 113.436 36.0336 113.702 36.1935C113.966 36.3519 114.248 36.408 114.505 36.408V34.408ZM114.868 34.5831C114.877 34.5969 114.886 34.618 114.891 34.6419C114.896 34.6645 114.893 34.6734 114.895 34.6614L112.915 34.3786C112.852 34.8173 112.93 35.2618 113.181 35.6569L114.868 34.5831ZM114.902 34.5865C114.903 34.5834 114.903 34.5845 114.902 34.5885C114.901 34.5927 114.899 34.5978 114.897 34.6031C114.894 34.6082 114.892 34.6113 114.892 34.612C114.891 34.6126 114.893 34.6095 114.9 34.6031L113.486 33.1889C113.145 33.5296 112.94 33.9627 112.907 34.4535L114.902 34.5865ZM114.93 34.5717C114.92 34.5828 114.907 34.5933 114.894 34.6021C114.881 34.6107 114.872 34.6149 114.868 34.6163C114.861 34.6188 114.886 34.608 114.961 34.608V32.608C114.431 32.608 113.872 32.7657 113.456 33.2203L114.93 34.5717ZM114.961 34.608C115.529 34.608 116.07 34.5323 116.573 34.3647L115.94 32.4673C115.675 32.5557 115.353 32.608 114.961 32.608V34.608ZM116.585 34.3605C117.08 34.1883 117.523 33.9248 117.902 33.5682L116.531 32.1118C116.366 32.2672 116.169 32.3877 115.928 32.4715L116.585 34.3605ZM117.902 33.5682C118.288 33.2052 118.58 32.7638 118.788 32.2646L116.942 31.4954C116.83 31.7642 116.69 31.9628 116.531 32.1118L117.902 33.5682ZM118.774 32.2967C119 31.802 119.143 31.2517 119.217 30.66L117.232 30.412C117.178 30.8443 117.081 31.1899 116.956 31.4633L118.774 32.2967ZM119.216 30.6682C119.214 30.6821 119.2 30.7654 119.124 30.8616C119.043 30.9642 118.944 31.0158 118.879 31.0358L118.291 29.1242C118.018 29.2082 117.755 29.3678 117.554 29.6224C117.358 29.8706 117.267 30.1499 117.233 30.4038L119.216 30.6682ZM118.944 31.0133C118.946 31.0124 118.927 31.02 118.891 31.02C118.853 31.02 118.821 31.0118 118.8 31.0031L119.569 29.1569C119.122 28.9705 118.655 28.9816 118.226 29.1467L118.944 31.0133ZM118.891 31.0358C118.814 31.0122 118.652 30.9343 118.541 30.743C118.439 30.5669 118.455 30.4213 118.457 30.4038L120.44 30.6682C120.474 30.4107 120.462 30.0691 120.272 29.741C120.073 29.3977 119.763 29.2118 119.479 29.1242L118.891 31.0358ZM118.452 30.4607C118.394 31.2236 118.246 31.8452 118.028 32.3444L119.861 33.1436C120.188 32.3948 120.375 31.5444 120.446 30.6113L118.452 30.4607ZM118.032 32.3356C117.808 32.8367 117.53 33.2251 117.209 33.5222L118.568 34.9898C119.111 34.4869 119.538 33.8673 119.858 33.1524L118.032 32.3356ZM117.224 33.5086C116.899 33.7981 116.515 34.0199 116.06 34.1713L116.693 36.0687C117.391 35.8361 118.015 35.4819 118.553 35.0034L117.224 33.5086ZM116.052 34.1741C115.612 34.325 115.1 34.408 114.505 34.408V36.408C115.286 36.408 116.021 36.299 116.701 36.0659L116.052 34.1741ZM128.665 45.488L127.739 45.1107L127.735 45.1198L127.731 45.129L128.665 45.488ZM128.185 45.752L128.317 44.7608L128.284 44.7564L128.251 44.7542L128.185 45.752ZM127.561 45.464L126.821 46.1367L126.837 46.1543L126.854 46.1711L127.561 45.464ZM127.465 44.84L128.393 45.2114L128.398 45.1994L128.402 45.1873L127.465 44.84ZM128.161 43.376L127.294 42.877L127.288 42.8882L128.161 43.376ZM129.313 41.672L130.108 42.2787L129.313 41.672ZM130.921 39.848L130.281 39.0798L130.246 39.1088L130.214 39.1409L130.921 39.848ZM131.281 39.68L131.181 38.685L131.122 38.6909L131.064 38.7038L131.281 39.68ZM131.809 39.944L132.516 39.2369L131.809 39.944ZM132.073 40.448H131.073V40.4934L131.077 40.5385L132.073 40.448ZM131.905 40.904L131.198 40.1969L131.905 40.904ZM130.561 42.416L129.778 41.7941L129.772 41.8013L129.766 41.8086L130.561 42.416ZM129.433 44.024L128.589 43.4871L128.582 43.4985L129.433 44.024ZM120.385 34.76L119.848 35.6037L119.855 35.608L119.862 35.6123L120.385 34.76ZM118.345 27.056L117.37 26.8344L117.367 26.845L117.365 26.8556L118.345 27.056ZM119.041 25.16L119.92 25.6371L119.041 25.16ZM120.145 23.744L120.809 24.4914L120.145 23.744ZM121.633 22.856L121.981 23.7934L121.633 22.856ZM125.089 22.76L124.833 23.7267L124.84 23.7285L125.089 22.76ZM126.649 23.384L126.156 24.254L127.649 25.1001V23.384H126.649ZM126.913 22.808L127.392 23.6859L127.421 23.6698L127.45 23.6517L126.913 22.808ZM128.449 22.808L127.875 23.6272L127.921 23.6592L127.97 23.6859L128.449 22.808ZM128.449 45.704L127.97 44.8261L127.921 44.8528L127.875 44.8848L128.449 45.704ZM126.913 45.704L127.45 44.8603L127.421 44.8422L127.392 44.8261L126.913 45.704ZM126.649 33.368H127.649V30.2173L125.832 32.7913L126.649 33.368ZM125.401 34.64L125.955 35.4721L125.962 35.4675L125.401 34.64ZM124.081 35.24L123.838 34.2698L123.83 34.272L124.081 35.24ZM120.553 31.544L119.602 31.8531L119.604 31.8602L120.553 31.544ZM121.489 32.984L120.86 33.7619L120.867 33.7677L120.875 33.7734L121.489 32.984ZM124.417 33.248L124.069 32.3102L124.058 32.3147L124.417 33.248ZM125.617 32.456L124.925 31.734L124.917 31.7414L124.91 31.7489L125.617 32.456ZM126.649 31.016L127.538 31.4728L127.649 31.2578V31.016H126.649ZM126.649 25.304H127.649V24.7591L127.191 24.4637L126.649 25.304ZM125.185 24.632L124.927 25.5982L125.185 24.632ZM122.545 24.632L122.886 25.5718L122.545 24.632ZM121.585 25.208L122.249 25.9554L121.585 25.208ZM120.841 26.168L119.961 25.6917L119.954 25.7061L119.946 25.7208L120.841 26.168ZM120.385 27.512L119.408 27.2983L119.405 27.313L119.402 27.3277L120.385 27.512ZM127.731 45.129C127.757 45.0632 127.833 44.9271 128.003 44.8338C128.163 44.7459 128.294 44.7577 128.317 44.7608L128.053 46.7432C128.316 46.7783 128.647 46.7621 128.967 46.5862C129.296 46.4049 129.493 46.1208 129.598 45.847L127.731 45.129ZM128.251 44.7542C128.248 44.754 128.249 44.7538 128.253 44.7549C128.257 44.7559 128.263 44.7576 128.268 44.76C128.273 44.7624 128.276 44.7645 128.277 44.765C128.277 44.7654 128.274 44.7633 128.268 44.7569L126.854 46.1711C127.194 46.5119 127.627 46.7171 128.118 46.7498L128.251 44.7542ZM128.301 44.7913C128.335 44.8291 128.387 44.9092 128.405 45.0239C128.422 45.1329 128.396 45.2031 128.393 45.2114L126.536 44.4686C126.437 44.7169 126.38 45.0111 126.428 45.3281C126.478 45.6508 126.626 45.9229 126.821 46.1367L128.301 44.7913ZM128.402 45.1873C128.539 44.8172 128.747 44.3773 129.034 43.8638L127.288 42.8882C126.967 43.4627 126.71 43.9988 126.527 44.4927L128.402 45.1873ZM129.027 43.875C129.305 43.3924 129.664 42.8606 130.108 42.2787L128.518 41.0653C128.034 41.6994 127.624 42.3036 127.294 42.877L129.027 43.875ZM130.108 42.2787C130.542 41.7101 131.047 41.1354 131.628 40.5551L130.214 39.1409C129.578 39.7766 129.012 40.4179 128.518 41.0653L130.108 42.2787ZM131.561 40.6162C131.539 40.6346 131.519 40.6459 131.506 40.6522C131.493 40.6582 131.489 40.6582 131.498 40.6562L131.064 38.7038C130.792 38.7642 130.519 38.8808 130.281 39.0798L131.561 40.6162ZM131.38 40.675C131.234 40.6897 131.129 40.65 131.085 40.6284C131.049 40.61 131.055 40.6044 131.102 40.6511L132.516 39.2369C132.253 38.9746 131.794 38.6237 131.181 38.685L131.38 40.675ZM131.102 40.6511C131.139 40.6886 131.136 40.6946 131.121 40.666C131.104 40.6333 131.073 40.5571 131.073 40.448H133.073C133.073 39.9074 132.778 39.499 132.516 39.2369L131.102 40.6511ZM131.077 40.5385C131.073 40.4923 131.076 40.4239 131.104 40.3483C131.132 40.2733 131.171 40.2231 131.198 40.1969L132.612 41.6111C132.944 41.2791 133.112 40.8372 133.069 40.3575L131.077 40.5385ZM131.198 40.1969C130.705 40.6893 130.232 41.222 129.778 41.7941L131.344 43.0379C131.753 42.522 132.176 42.0467 132.612 41.6111L131.198 40.1969ZM129.766 41.8086C129.334 42.3733 128.942 42.9328 128.589 43.4871L130.276 44.5609C130.596 44.0592 130.955 43.5467 131.355 43.0234L129.766 41.8086ZM128.582 43.4985C128.227 44.0737 127.942 44.6124 127.739 45.1107L129.591 45.8653C129.74 45.4996 129.967 45.0623 130.283 44.5495L128.582 43.4985ZM122.809 34.408C122.061 34.408 121.438 34.2332 120.908 33.9077L119.862 35.6123C120.739 36.1508 121.732 36.408 122.809 36.408V34.408ZM120.922 33.9163C120.41 33.5911 119.976 33.0854 119.642 32.3363L117.816 33.1517C118.281 34.1946 118.951 35.0329 119.848 35.6037L120.922 33.9163ZM119.642 32.3363C119.317 31.608 119.129 30.6303 119.129 29.36H117.129C117.129 30.8097 117.341 32.088 117.816 33.1517L119.642 32.3363ZM119.129 29.36C119.129 28.585 119.196 27.8851 119.324 27.2564L117.365 26.8556C117.206 27.6349 117.129 28.471 117.129 29.36H119.129ZM119.32 27.2776C119.462 26.6511 119.665 26.1069 119.92 25.6371L118.162 24.6829C117.809 25.3331 117.547 26.0528 117.37 26.8344L119.32 27.2776ZM119.92 25.6371C120.174 25.1685 120.472 24.7909 120.809 24.4914L119.48 22.9966C118.953 23.4651 118.515 24.0315 118.162 24.6829L119.92 25.6371ZM120.809 24.4914C121.145 24.1926 121.533 23.9597 121.981 23.7934L121.285 21.9186C120.612 22.1683 120.008 22.5274 119.48 22.9966L120.809 24.4914ZM121.981 23.7934C122.416 23.6316 122.913 23.544 123.481 23.544V21.544C122.705 21.544 121.969 21.6644 121.285 21.9186L121.981 23.7934ZM123.481 23.544C123.917 23.544 124.367 23.6034 124.833 23.7267L125.345 21.7933C124.723 21.6286 124.101 21.544 123.481 21.544V23.544ZM124.84 23.7285C125.318 23.8516 125.756 24.0275 126.156 24.254L127.142 22.514C126.581 22.1965 125.979 21.9564 125.338 21.7915L124.84 23.7285ZM127.649 23.384V23.264H125.649V23.384H127.649ZM127.649 23.264C127.649 23.3033 127.639 23.3928 127.58 23.495C127.52 23.5992 127.441 23.6588 127.392 23.6859L126.434 21.9301C126.208 22.0532 125.998 22.2368 125.849 22.493C125.702 22.7472 125.649 23.0166 125.649 23.264H127.649ZM127.45 23.6517C127.417 23.6725 127.409 23.668 127.45 23.6589C127.492 23.6498 127.566 23.64 127.681 23.64V21.64C127.26 21.64 126.783 21.7055 126.376 21.9643L127.45 23.6517ZM127.681 23.64C127.808 23.64 127.884 23.6505 127.923 23.6589C127.963 23.6678 127.934 23.6682 127.875 23.6272L129.022 21.9888C128.606 21.6973 128.094 21.64 127.681 21.64V23.64ZM127.97 23.6859C127.92 23.6588 127.842 23.5992 127.781 23.495C127.722 23.3928 127.713 23.3033 127.713 23.264H129.713C129.713 23.0167 129.659 22.7472 129.512 22.493C129.364 22.2368 129.153 22.0532 128.928 21.9301L127.97 23.6859ZM127.713 23.264V45.248H129.713V23.264H127.713ZM127.713 45.248C127.713 45.2087 127.722 45.1192 127.781 45.017C127.842 44.9128 127.92 44.8532 127.97 44.8261L128.928 46.5819C129.153 46.4588 129.364 46.2752 129.512 46.019C129.659 45.7648 129.713 45.4953 129.713 45.248H127.713ZM127.875 44.8848C127.934 44.8438 127.963 44.8442 127.923 44.8531C127.884 44.8615 127.808 44.872 127.681 44.872V46.872C128.094 46.872 128.606 46.8147 129.022 46.5232L127.875 44.8848ZM127.681 44.872C127.566 44.872 127.492 44.8622 127.45 44.8531C127.409 44.844 127.417 44.8395 127.45 44.8603L126.376 46.5477C126.783 46.8065 127.26 46.872 127.681 46.872V44.872ZM127.392 44.8261C127.441 44.8532 127.52 44.9128 127.58 45.017C127.639 45.1192 127.649 45.2087 127.649 45.248H125.649C125.649 45.4953 125.702 45.7648 125.849 46.019C125.998 46.2752 126.208 46.4588 126.434 46.5819L127.392 44.8261ZM127.649 45.248V33.368H125.649V45.248H127.649ZM125.832 32.7913C125.502 33.2589 125.168 33.5896 124.839 33.8125L125.962 35.4675C126.53 35.0824 127.028 34.5651 127.466 33.9447L125.832 32.7913ZM124.846 33.8079C124.498 34.0402 124.162 34.1889 123.838 34.2699L124.323 36.2101C124.895 36.0671 125.44 35.8158 125.955 35.472L124.846 33.8079ZM123.83 34.272C123.474 34.3643 123.134 34.408 122.809 34.408V36.408C123.315 36.408 123.824 36.3397 124.332 36.208L123.83 34.272ZM119.241 29.264C119.241 30.2186 119.353 31.088 119.602 31.8531L121.504 31.2349C121.336 30.72 121.241 30.0694 121.241 29.264H119.241ZM119.604 31.8602C119.859 32.6238 120.265 33.2808 120.86 33.7619L122.117 32.2061C121.881 32.0152 121.663 31.7122 121.501 31.2278L119.604 31.8602ZM120.875 33.7734C121.511 34.2682 122.274 34.488 123.097 34.488V32.488C122.64 32.488 122.33 32.3718 122.103 32.1946L120.875 33.7734ZM123.097 34.488C123.678 34.488 124.24 34.3872 124.776 34.1813L124.058 32.3147C123.761 32.4288 123.443 32.488 123.097 32.488V34.488ZM124.764 34.1857C125.348 33.9696 125.867 33.6198 126.324 33.1631L124.91 31.7489C124.63 32.0282 124.35 32.2064 124.069 32.3103L124.764 34.1857ZM126.309 33.178C126.79 32.7167 127.196 32.1398 127.538 31.4728L125.759 30.5592C125.494 31.0762 125.211 31.4593 124.925 31.734L126.309 33.178ZM127.649 31.016V25.304H125.649V31.016H127.649ZM127.191 24.4637C126.623 24.0975 126.04 23.8252 125.442 23.6658L124.927 25.5982C125.289 25.6948 125.682 25.8705 126.107 26.1443L127.191 24.4637ZM125.442 23.6658C124.876 23.5147 124.293 23.44 123.697 23.44V25.44C124.124 25.44 124.534 25.4933 124.927 25.5982L125.442 23.6658ZM123.697 23.44C123.177 23.44 122.676 23.5202 122.203 23.6922L122.886 25.5718C123.117 25.4878 123.384 25.44 123.697 25.44V23.44ZM122.203 23.6922C121.729 23.8646 121.3 24.1231 120.92 24.4606L122.249 25.9554C122.445 25.7809 122.657 25.6554 122.886 25.5718L122.203 23.6922ZM120.92 24.4606C120.535 24.8034 120.217 25.219 119.961 25.6917L121.72 26.6443C121.88 26.349 122.059 26.1246 122.249 25.9554L120.92 24.4606ZM119.946 25.7208C119.71 26.1931 119.534 26.7224 119.408 27.2983L121.362 27.7257C121.46 27.2776 121.587 26.9109 121.735 26.6152L119.946 25.7208ZM119.402 27.3277C119.292 27.9137 119.241 28.5613 119.241 29.264H121.241C121.241 28.6547 121.285 28.1343 121.368 27.6963L119.402 27.3277ZM141.933 12.68L142.412 13.5579L142.442 13.5418L142.47 13.5237L141.933 12.68ZM153.789 12.728L152.957 13.2827L152.993 13.3372L153.037 13.3865L153.789 12.728ZM153.789 14.216L153 13.6021L152.977 13.6309L152.957 13.6613L153.789 14.216ZM143.781 14.432V13.432H142.781V14.432H143.781ZM143.781 22.784H142.781V23.784H143.781V22.784ZM152.205 23L151.373 23.5547L151.388 23.5778L151.405 23.6L152.205 23ZM152.205 24.488L151.373 23.9333V23.9333L152.205 24.488ZM143.781 24.704V23.704H142.781V24.704H143.781ZM142.725 34.336C142.599 34.336 142.517 34.3257 142.471 34.3158C142.423 34.3057 142.432 34.3004 142.47 34.3243C142.514 34.3526 142.576 34.408 142.621 34.494C142.664 34.577 142.669 34.6436 142.669 34.664H140.669C140.669 35.1997 140.907 35.7004 141.396 36.0117C141.809 36.2741 142.299 36.336 142.725 36.336V34.336ZM142.669 34.664V13.16H140.669V34.664H142.669ZM142.669 13.16C142.669 13.1787 142.665 13.2563 142.611 13.3539C142.554 13.4573 142.474 13.5238 142.412 13.5579L141.454 11.8021C140.913 12.0971 140.669 12.6224 140.669 13.16H142.669ZM142.47 13.5237C142.432 13.5476 142.423 13.5423 142.471 13.5322C142.517 13.5223 142.599 13.512 142.725 13.512V11.512C142.299 11.512 141.809 11.5739 141.396 11.8363L142.47 13.5237ZM142.725 13.512H153.285V11.512H142.725V13.512ZM153.285 13.512C153.31 13.512 153.27 13.5164 153.197 13.4851C153.113 13.4492 153.023 13.3814 152.957 13.2827L154.621 12.1733C154.273 11.6512 153.718 11.512 153.285 11.512V13.512ZM153.037 13.3865C152.987 13.3296 152.961 13.28 152.95 13.2544C152.938 13.229 152.937 13.2184 152.94 13.2303C152.942 13.2415 152.947 13.2667 152.951 13.309C152.955 13.3509 152.957 13.4047 152.957 13.472H154.957C154.957 13.2437 154.94 13.0103 154.891 12.7897C154.843 12.5775 154.748 12.3056 154.542 12.0695L153.037 13.3865ZM152.957 13.472C152.957 13.6 152.946 13.6716 152.94 13.7017C152.937 13.7152 152.936 13.7111 152.943 13.6946C152.951 13.6779 152.967 13.6438 153 13.6021L154.578 14.8299C154.906 14.409 154.957 13.8697 154.957 13.472H152.957ZM152.957 13.6613C153.023 13.5626 153.113 13.4948 153.197 13.4589C153.27 13.4276 153.31 13.432 153.285 13.432V15.432C153.718 15.432 154.273 15.2928 154.621 14.7707L152.957 13.6613ZM153.285 13.432H143.781V15.432H153.285V13.432ZM142.781 14.432V22.784H144.781V14.432H142.781ZM143.781 23.784H151.701V21.784H143.781V23.784ZM151.701 23.784C151.726 23.784 151.686 23.7884 151.613 23.7571C151.529 23.7212 151.439 23.6534 151.373 23.5547L153.037 22.4453C152.689 21.9232 152.134 21.784 151.701 21.784V23.784ZM151.405 23.6C151.361 23.5416 151.341 23.4945 151.334 23.4762C151.327 23.4571 151.328 23.4535 151.331 23.472C151.335 23.4898 151.339 23.5209 151.343 23.5682C151.347 23.615 151.349 23.6732 151.349 23.744H153.349C153.349 23.5223 153.335 23.2999 153.295 23.092C153.257 22.8964 153.182 22.6353 153.005 22.4L151.405 23.6ZM151.349 23.744C151.349 23.8791 151.34 23.9616 151.331 24.004C151.328 24.0238 151.326 24.0262 151.329 24.0157C151.333 24.0054 151.346 23.9746 151.373 23.9333L153.037 25.0427C153.309 24.6357 153.349 24.1261 153.349 23.744H151.349ZM151.373 23.9333C151.439 23.8346 151.529 23.7668 151.613 23.7309C151.686 23.6996 151.726 23.704 151.701 23.704V25.704C152.134 25.704 152.689 25.5648 153.037 25.0427L151.373 23.9333ZM151.701 23.704H143.781V25.704H151.701V23.704ZM142.781 24.704V34.664H144.781V24.704H142.781ZM142.781 34.664C142.781 34.6436 142.786 34.577 142.829 34.494C142.874 34.408 142.936 34.3526 142.98 34.3243L144.054 36.0117C144.543 35.7004 144.781 35.1997 144.781 34.664H142.781ZM142.98 34.3243C143.018 34.3004 143.027 34.3057 142.98 34.3158C142.933 34.3257 142.851 34.336 142.725 34.336V36.336C143.151 36.336 143.642 36.2741 144.054 36.0117L142.98 34.3243ZM155.483 35.408L154.754 36.0919L154.755 36.0934L155.483 35.408ZM155.483 33.08L154.776 32.3729L154.765 32.3843L154.754 32.3961L155.483 33.08ZM157.739 33.08L157.01 33.7639L157.021 33.7757L157.032 33.7871L157.739 33.08ZM157.739 35.408L157.032 34.7009L157.01 34.723L156.989 34.7464L157.739 35.408ZM156.611 34.816C156.296 34.816 156.222 34.7341 156.211 34.7226L154.755 36.0934C155.256 36.6259 155.934 36.816 156.611 36.816V34.816ZM156.213 34.7241C156.212 34.7232 156.123 34.6293 156.123 34.256H154.123C154.123 34.9067 154.274 35.5808 154.754 36.0919L156.213 34.7241ZM156.123 34.256C156.123 34.0642 156.145 33.9371 156.169 33.8587C156.181 33.8207 156.192 33.7968 156.2 33.7831C156.207 33.7699 156.212 33.7648 156.213 33.7639L154.754 32.3961C154.27 32.9121 154.123 33.5993 154.123 34.256H156.123ZM156.19 33.7871C156.198 33.7794 156.28 33.696 156.611 33.696V31.696C155.95 31.696 155.28 31.8686 154.776 32.3729L156.19 33.7871ZM156.611 33.696C156.975 33.696 157.031 33.7871 157.01 33.7639L158.469 32.3961C157.967 31.8609 157.272 31.696 156.611 31.696V33.696ZM157.032 33.7871C157.034 33.7893 157.055 33.809 157.077 33.8764C157.1 33.9486 157.123 34.0694 157.123 34.256H159.123C159.123 33.5843 158.961 32.8877 158.446 32.3729L157.032 33.7871ZM157.123 34.256C157.123 34.6139 157.034 34.6986 157.032 34.7009L158.446 36.1151C158.956 35.6054 159.123 34.9221 159.123 34.256H157.123ZM156.989 34.7464C156.988 34.7474 156.987 34.7493 156.981 34.7528C156.976 34.7565 156.962 34.7644 156.937 34.7736C156.884 34.7929 156.782 34.816 156.611 34.816V36.816C157.288 36.816 157.991 36.6338 158.489 36.0696L156.989 34.7464Z" fill="#EFC720" mask="url(#path-4-inside-1_749_130)"/>
<circle cx="35" cy="9" r="5" fill="#D1AC0E"/>
<circle cx="17" cy="9" r="5" fill="#D1AC0E"/>
<circle cx="18" cy="43" r="5" fill="#D1AC0E"/>
</svg>
